<?xml version="1.0" encoding="UTF-8" standalone="no"?>
<!-- Created with Inkscape (http://www.inkscape.org/) -->

<svg
   width="15.874362mm"
   height="8.9225473mm"
   viewBox="0 0 15.874362 8.9225473"
   version="1.1"
   id="svg1"
   inkscape:version="1.4.3 (0d15f75042, 2025-12-25)"
   sodipodi:docname="ewenement-dojo-logo-splits.svg"
   xmlns:inkscape="http://www.inkscape.org/namespaces/inkscape"
   xmlns:sodipodi="http://sodipodi.sourceforge.net/DTD/sodipodi-0.dtd"
   xmlns:xlink="http://www.w3.org/1999/xlink"
   xmlns="http://www.w3.org/2000/svg"
   xmlns:svg="http://www.w3.org/2000/svg">
  <sodipodi:namedview
     id="namedview1"
     pagecolor="#ffffff"
     bordercolor="#000000"
     borderopacity="0.25"
     inkscape:showpageshadow="2"
     inkscape:pageopacity="0.0"
     inkscape:pagecheckerboard="true"
     inkscape:deskcolor="#d1d1d1"
     inkscape:document-units="mm"
     showborder="false"
     inkscape:zoom="5.6568543"
     inkscape:cx="35.001786"
     inkscape:cy="35.708892"
     inkscape:window-width="1339"
     inkscape:window-height="1217"
     inkscape:window-x="0"
     inkscape:window-y="0"
     inkscape:window-maximized="0"
     inkscape:current-layer="layer1"
     showgrid="true">
    <inkscape:grid
       id="grid85"
       units="mm"
       originx="-18.520833"
       originy="-35.608218"
       spacingx="0.99999998"
       spacingy="1"
       empcolor="#0099e5"
       empopacity="0.30196078"
       color="#0099e5"
       opacity="0.14901961"
       empspacing="5"
       enabled="true"
       visible="true" />
  </sodipodi:namedview>
  <defs
     id="defs1">
    <inkscape:path-effect
       effect="fill_between_many"
       method="originald"
       linkedpaths="#path29,0,1"
       id="path-effect38"
       is_visible="true"
       lpeversion="0"
       join="true"
       close="true"
       autoreverse="true" />
    <inkscape:path-effect
       effect="fill_between_many"
       method="originald"
       linkedpaths="#path29,0,1"
       id="path-effect39"
       is_visible="true"
       lpeversion="0"
       join="true"
       close="true"
       autoreverse="true" />
    <inkscape:path-effect
       effect="fill_between_many"
       method="originald"
       linkedpaths="#path29,0,1"
       id="path-effect40"
       is_visible="true"
       lpeversion="0"
       join="true"
       close="true"
       autoreverse="true" />
  </defs>
  <g
     inkscape:label="Layer 1"
     inkscape:groupmode="layer"
     id="layer1"
     transform="translate(-18.520833,-35.608219)">
    <g
       id="g88"
       transform="matrix(1.521353,0,0,1.521353,-33.870158,-22.494191)">
      <path
         style="display:inline;fill:#000000;fill-opacity:1;stroke:none;stroke-width:0.1;stroke-dasharray:none;stroke-opacity:1"
         sodipodi:type="inkscape:offset"
         inkscape:radius="0.45570484"
         inkscape:original="M 38.888672 38.646484 C 38.880475 38.646323 38.868439 38.65603 38.853516 38.675781 C 38.818461 38.722174 38.779567 38.841031 38.751953 38.988281 C 38.722111 39.147419 38.725318 39.548709 38.757812 39.667969 C 38.771736 39.719072 38.782078 39.763823 38.779297 39.771484 C 38.779297 39.771484 38.777344 39.771484 38.777344 39.771484 L 38.777344 39.773438 C 38.777344 39.773438 38.775391 39.773438 38.775391 39.773438 C 38.761535 39.774942 38.707547 39.711489 38.664062 39.642578 C 38.644186 39.611078 38.600734 39.520452 38.566406 39.439453 C 38.468723 39.208964 38.419337 39.116672 38.345703 39.033203 C 38.238266 38.911417 38.099559 38.890288 38.080078 38.992188 C 38.076141 39.012774 38.08026 39.119798 38.089844 39.228516 C 38.109035 39.446236 38.100098 39.564093 38.050781 39.724609 C 37.984358 39.940809 37.975617 40.04043 38.021484 40.097656 C 38.044822 40.126774 38.103091 40.110873 38.195312 40.048828 C 38.36006 39.937987 38.392543 39.880327 38.279297 39.898438 C 38.245723 39.903801 38.22055 39.903021 38.214844 39.896484 C 38.214844 39.896484 38.212891 39.894531 38.212891 39.894531 C 38.212891 39.885847 38.224833 39.804059 38.238281 39.714844 C 38.251729 39.625628 38.263619 39.506219 38.263672 39.449219 C 38.26374 39.37387 38.268332 39.346952 38.283203 39.351562 C 38.294453 39.35505 38.350092 39.435284 38.40625 39.529297 C 38.579268 39.818941 38.640261 39.9031 38.751953 40.003906 C 38.862587 40.103757 38.888801 40.113648 38.998047 40.091797 C 39.046894 40.082029 39.048828 40.077777 39.048828 40.001953 C 39.048828 39.951113 39.027254 39.866403 38.990234 39.767578 C 38.958439 39.682702 38.922083 39.563538 38.908203 39.501953 C 38.871288 39.33817 38.862415 38.994483 38.890625 38.816406 C 38.908575 38.70297 38.908089 38.646868 38.888672 38.646484 z M 42.826172 38.648438 C 42.791287 38.660066 42.734792 38.792356 42.705078 38.931641 C 42.66782 39.106306 42.665667 39.548315 42.701172 39.671875 C 42.720967 39.74073 42.720208 39.757812 42.703125 39.757812 C 42.663388 39.757812 42.595979 39.645086 42.494141 39.410156 C 42.387064 39.163143 42.321184 39.052489 42.240234 38.984375 C 42.1447 38.903988 42.033654 38.913181 42.023438 39.001953 C 42.020588 39.026706 42.023984 39.115672 42.03125 39.201172 C 42.050383 39.42628 42.038203 39.582212 41.986328 39.75 C 41.937952 39.906479 41.923527 40.054294 41.955078 40.085938 C 41.987875 40.118831 42.084268 40.089151 42.189453 40.011719 C 42.30852 39.92407 42.32 39.882874 42.222656 39.898438 C 42.14609 39.910681 42.149102 39.925751 42.181641 39.701172 C 42.194678 39.611172 42.206747 39.493906 42.207031 39.441406 C 42.207406 39.372548 42.211825 39.348603 42.226562 39.353516 C 42.237799 39.357261 42.310439 39.465949 42.386719 39.595703 C 42.500507 39.78926 42.549969 39.857136 42.667969 39.974609 C 42.794673 40.100748 42.819882 40.117188 42.871094 40.117188 C 42.903065 40.117187 42.943528 40.11088 42.960938 40.101562 C 43.011519 40.074492 43.002382 39.950392 42.9375 39.779297 C 42.844266 39.533441 42.82136 39.41622 42.820312 39.152344 C 42.819789 39.021844 42.826529 38.854532 42.833984 38.779297 C 42.84412 38.677017 42.844099 38.647108 42.830078 38.648438 C 42.829111 38.648558 42.82722 38.648085 42.826172 38.648438 z M 43.666016 38.699219 C 43.63337 38.699054 43.577306 38.752223 43.507812 38.849609 C 43.459374 38.917489 43.415415 38.960087 43.388672 38.966797 C 43.365546 38.9726 43.290967 38.969382 43.222656 38.958984 C 43.063226 38.934732 43.021294 38.93394 42.984375 38.960938 C 42.944614 38.990011 42.958516 39.040928 43.035156 39.152344 L 43.09375 39.240234 L 43.058594 39.3125 C 43.027421 39.376662 43.026265 39.389547 43.046875 39.410156 C 43.074804 39.438085 43.120199 39.419799 43.193359 39.351562 C 43.255521 39.293584 43.250741 39.233681 43.179688 39.140625 C 43.150567 39.102486 43.129072 39.06872 43.128906 39.060547 C 43.128906 39.060547 43.128906 39.058594 43.128906 39.058594 L 43.130859 39.058594 C 43.137947 39.055446 43.194559 39.061433 43.261719 39.072266 L 43.388672 39.091797 L 43.378906 39.193359 C 43.349483 39.480671 43.33911 39.695829 43.351562 39.806641 C 43.365365 39.929471 43.40638 40.074903 43.4375 40.113281 C 43.463926 40.145869 43.494274 40.137207 43.539062 40.083984 C 43.601097 40.010263 43.604108 39.947837 43.5625 39.755859 C 43.523405 39.575473 43.514948 39.379078 43.537109 39.199219 L 43.550781 39.091797 L 43.626953 39.082031 C 43.669113 39.076595 43.732847 39.066632 43.767578 39.060547 L 43.830078 39.048828 L 43.759766 39.152344 C 43.651146 39.311468 43.653663 39.436455 43.765625 39.541016 C 43.800992 39.574046 43.807835 39.576784 43.826172 39.554688 C 43.848023 39.528357 43.843002 39.488737 43.808594 39.404297 C 43.776448 39.325406 43.811081 39.264297 43.992188 39.083984 C 44.142302 38.934531 44.187184 38.866745 44.162109 38.826172 C 44.146389 38.800734 44.10433 38.804156 43.996094 38.841797 C 43.874242 38.884173 43.649864 38.939987 43.632812 38.931641 L 43.632812 38.929688 C 43.632812 38.929688 43.630859 38.929688 43.630859 38.929688 C 43.628115 38.922616 43.64138 38.888253 43.660156 38.849609 C 43.699167 38.769315 43.704405 38.719608 43.677734 38.703125 C 43.674095 38.700868 43.670678 38.699242 43.666016 38.699219 z M 40.910156 38.726562 C 40.873703 38.726501 40.771794 38.774909 40.71875 38.820312 C 40.683254 38.850696 40.60824 38.935873 40.552734 39.009766 C 40.515578 39.05923 40.487483 39.095823 40.466797 39.119141 C 40.430587 39.159941 40.417627 39.160396 40.427734 39.125 C 40.429693 39.118132 40.431458 39.102755 40.433594 39.080078 C 40.436673 39.047222 40.439714 39.002293 40.441406 38.957031 L 40.447266 38.816406 L 40.392578 38.820312 C 40.34823 38.822445 40.307514 38.83967 40.269531 38.873047 C 40.201136 38.933144 40.139837 39.046305 40.082031 39.220703 C 40.001616 39.463312 39.950789 39.706369 39.945312 39.871094 C 39.941689 39.980068 39.946254 39.993778 39.980469 40.021484 C 40.001308 40.038362 40.033483 40.052872 40.052734 40.052734 C 40.132969 40.05216 40.13543 40.039453 40.146484 39.712891 C 40.157077 39.399949 40.171125 39.324838 40.251953 39.119141 C 40.27518 39.060027 40.290595 39.031734 40.298828 39.03125 C 40.298828 39.03125 40.300781 39.03125 40.300781 39.03125 C 40.305908 39.037595 40.307865 39.06453 40.302734 39.111328 C 40.272489 39.38707 40.270243 39.523314 40.298828 39.609375 C 40.333382 39.713409 40.388389 39.75623 40.449219 39.728516 C 40.502045 39.704446 40.517955 39.656385 40.53125 39.492188 C 40.539715 39.38764 40.55102 39.319723 40.576172 39.255859 C 40.594904 39.208298 40.621093 39.163694 40.660156 39.105469 C 40.702985 39.041631 40.73985 38.988281 40.742188 38.988281 C 40.744513 38.988281 40.745815 39.116235 40.746094 39.271484 C 40.746211 39.33581 40.750239 39.407068 40.753906 39.478516 C 40.764856 39.692091 40.788327 39.906661 40.808594 39.939453 C 40.815338 39.950362 40.829383 39.946039 40.849609 39.927734 C 40.876696 39.90322 40.889612 39.901357 40.935547 39.917969 C 40.965111 39.92866 40.994846 39.9375 41 39.9375 C 41.002684 39.931117 40.989065 39.878422 40.96875 39.814453 C 40.959811 39.786307 40.952619 39.754222 40.945312 39.71875 C 40.904923 39.522705 40.889349 39.226416 40.910156 38.970703 C 40.920594 38.842205 40.926151 38.732791 40.921875 38.728516 C 40.919727 38.726339 40.915363 38.726571 40.910156 38.726562 z M 36.197266 38.732422 C 36.178896 38.733126 36.156977 38.746392 36.132812 38.773438 C 36.063799 38.850679 36.049982 38.934779 36.058594 39.185547 C 36.066302 39.409994 36.082998 39.506913 36.162109 39.742188 C 36.209376 39.882759 36.258305 39.952514 36.353516 40.021484 C 36.458775 40.097734 36.469017 40.086231 36.478516 39.896484 L 36.488281 39.734375 L 36.515625 39.785156 C 36.531164 39.813551 36.587912 39.892147 36.642578 39.960938 L 36.742188 40.085938 L 36.822266 40.138672 C 36.91109 40.134022 36.928563 40.074119 36.923828 40.035156 C 36.921096 40.012657 36.915129 39.887652 36.910156 39.755859 C 36.900257 39.493523 36.896374 39.513815 37.017578 39.162109 C 37.104174 38.910831 37.103998 38.841797 37.017578 38.841797 C 36.983895 38.841797 36.868519 38.965917 36.837891 39.035156 C 36.764218 39.201711 36.749194 39.29613 36.75 39.576172 L 36.751953 39.84375 L 36.705078 39.789062 C 36.679785 39.75882 36.641677 39.69513 36.619141 39.648438 C 36.581862 39.571216 36.578125 39.545102 36.578125 39.351562 C 36.578125 39.109725 36.564843 39.082893 36.492188 39.169922 C 36.403128 39.276601 36.341816 39.530288 36.359375 39.71875 C 36.363284 39.760613 36.365358 39.779778 36.361328 39.783203 L 36.359375 39.783203 L 36.359375 39.785156 C 36.356167 39.785209 36.349764 39.779373 36.341797 39.769531 C 36.294643 39.711282 36.246626 39.224107 36.261719 38.957031 C 36.269942 38.811512 36.244213 38.730608 36.197266 38.732422 z M 35.25 38.765625 C 35.240932 38.766101 35.233821 38.771319 35.226562 38.777344 C 35.189219 38.808337 35.196921 38.842231 35.273438 38.992188 C 35.344468 39.131393 35.382812 39.26783 35.382812 39.382812 C 35.382812 39.442222 35.37853 39.446144 35.263672 39.507812 C 35.167899 39.559233 35.144724 39.58052 35.140625 39.615234 C 35.136958 39.646295 35.14664 39.664499 35.175781 39.683594 C 35.216371 39.71019 35.239171 39.705344 35.353516 39.646484 C 35.377655 39.634059 35.366106 39.719571 35.318359 39.888672 C 35.261758 40.089134 35.258664 40.114234 35.294922 40.154297 C 35.346535 40.211328 35.409344 40.184779 35.470703 40.080078 C 35.523105 39.990661 35.66596 39.856731 35.779297 39.792969 C 35.870681 39.741559 36.02212 39.700098 36.060547 39.714844 C 36.097595 39.729048 36.1228 39.686728 36.097656 39.652344 C 36.052225 39.590213 35.818267 39.629763 35.605469 39.736328 L 35.525391 39.777344 L 35.535156 39.738281 C 35.540794 39.717243 35.546751 39.665589 35.546875 39.623047 C 35.547154 39.52649 35.580592 39.500043 35.746094 39.46875 C 35.873545 39.444651 35.909338 39.425302 35.894531 39.386719 C 35.886212 39.365037 35.859136 39.361874 35.716797 39.369141 L 35.548828 39.378906 L 35.53125 39.271484 C 35.521021 39.212745 35.493328 39.128631 35.470703 39.083984 C 35.449493 39.042128 35.43458 39.00336 35.435547 38.996094 C 35.442623 38.993563 35.489072 38.997493 35.541016 39.005859 C 35.686576 39.029301 35.858568 38.992032 35.935547 38.919922 C 36.010096 38.850088 35.959709 38.831757 35.820312 38.876953 C 35.673217 38.924645 35.559526 38.903357 35.320312 38.789062 C 35.285237 38.772302 35.265113 38.764819 35.25 38.765625 z M 37.140625 38.765625 C 37.131557 38.766101 37.126399 38.771319 37.119141 38.777344 C 37.081797 38.808337 37.087546 38.842231 37.164062 38.992188 C 37.235093 39.131393 37.273438 39.26783 37.273438 39.382812 C 37.273437 39.442222 37.271108 39.446144 37.15625 39.507812 C 37.060477 39.559233 37.035349 39.58052 37.03125 39.615234 C 37.027583 39.646295 37.037265 39.664499 37.066406 39.683594 C 37.106996 39.71019 37.131749 39.705344 37.246094 39.646484 C 37.270233 39.634059 37.256731 39.719571 37.208984 39.888672 C 37.152383 40.089134 37.151242 40.114234 37.1875 40.154297 C 37.239113 40.211328 37.299969 40.184779 37.361328 40.080078 C 37.41373 39.990661 37.556585 39.856731 37.669922 39.792969 C 37.761306 39.741559 37.912745 39.700098 37.951172 39.714844 C 37.98822 39.729048 38.013425 39.686728 37.988281 39.652344 C 37.94285 39.590213 37.708892 39.629763 37.496094 39.736328 L 37.416016 39.777344 L 37.427734 39.738281 C 37.433372 39.717243 37.437376 39.665589 37.4375 39.623047 C 37.437779 39.52649 37.47317 39.500043 37.638672 39.46875 C 37.766123 39.444651 37.799963 39.425302 37.785156 39.386719 C 37.776837 39.365037 37.749761 39.361874 37.607422 39.369141 L 37.441406 39.378906 L 37.421875 39.271484 C 37.411646 39.212745 37.383953 39.128631 37.361328 39.083984 C 37.340118 39.042128 37.325205 39.00336 37.326172 38.996094 L 37.328125 38.996094 C 37.335201 38.993563 37.379697 38.997493 37.431641 39.005859 C 37.577201 39.029301 37.749193 38.992032 37.826172 38.919922 C 37.900721 38.850088 37.852288 38.831757 37.712891 38.876953 C 37.565795 38.924645 37.452104 38.903357 37.212891 38.789062 C 37.177816 38.772302 37.155738 38.764819 37.140625 38.765625 z M 41.074219 38.765625 C 41.065151 38.766101 41.059992 38.771319 41.052734 38.777344 C 41.01539 38.808337 41.02114 38.842231 41.097656 38.992188 C 41.168687 39.131393 41.207031 39.26783 41.207031 39.382812 C 41.207031 39.442222 41.204702 39.446144 41.089844 39.507812 C 40.994071 39.559233 40.968942 39.58052 40.964844 39.615234 C 40.961176 39.646295 40.970859 39.664499 41 39.683594 C 41.040589 39.71019 41.065342 39.705344 41.179688 39.646484 C 41.203827 39.634059 41.190324 39.719571 41.142578 39.888672 C 41.085976 40.089134 41.082882 40.114234 41.119141 40.154297 C 41.170753 40.211328 41.233563 40.184779 41.294922 40.080078 C 41.347324 39.990661 41.490179 39.856731 41.603516 39.792969 C 41.6949 39.741559 41.846339 39.700098 41.884766 39.714844 C 41.921814 39.729048 41.947018 39.686728 41.921875 39.652344 C 41.876444 39.590213 41.642485 39.629763 41.429688 39.736328 L 41.349609 39.777344 L 41.361328 39.738281 C 41.366966 39.717243 41.37097 39.665589 41.371094 39.623047 C 41.371373 39.52649 41.406764 39.500043 41.572266 39.46875 C 41.699717 39.444651 41.733556 39.425302 41.71875 39.386719 C 41.710431 39.365037 41.683355 39.361874 41.541016 39.369141 L 41.373047 39.378906 L 41.355469 39.271484 C 41.34524 39.212745 41.317546 39.128631 41.294922 39.083984 C 41.273712 39.042128 41.258798 39.00336 41.259766 38.996094 L 41.261719 38.996094 C 41.268795 38.993563 41.31329 38.997493 41.365234 39.005859 C 41.510795 39.029301 41.682787 38.992032 41.759766 38.919922 C 41.834315 38.850088 41.783928 38.831757 41.644531 38.876953 C 41.497435 38.924645 41.385698 38.903357 41.146484 38.789062 C 41.111409 38.772302 41.089331 38.764819 41.074219 38.765625 z M 39.085938 38.773438 C 39.07687 38.773913 39.069758 38.777178 39.0625 38.783203 C 39.025156 38.814196 39.032858 38.850043 39.109375 39 C 39.180406 39.139206 39.21875 39.275642 39.21875 39.390625 C 39.21875 39.450035 39.214467 39.453957 39.099609 39.515625 C 39.003837 39.567046 38.980661 39.588332 38.976562 39.623047 C 38.972895 39.654107 38.982578 39.672312 39.011719 39.691406 C 39.052308 39.718003 39.077061 39.713156 39.191406 39.654297 C 39.215546 39.641872 39.202043 39.727384 39.154297 39.896484 C 39.097695 40.096947 39.094601 40.120094 39.130859 40.160156 C 39.182472 40.217188 39.245282 40.192592 39.306641 40.087891 C 39.359043 39.998473 39.501898 39.864544 39.615234 39.800781 C 39.706618 39.749371 39.858058 39.70791 39.896484 39.722656 C 39.933532 39.736861 39.958737 39.694541 39.933594 39.660156 C 39.888162 39.598026 39.654204 39.637576 39.441406 39.744141 L 39.361328 39.785156 L 39.371094 39.746094 C 39.376732 39.725056 39.382689 39.673402 39.382812 39.630859 C 39.383091 39.534302 39.418483 39.507856 39.583984 39.476562 C 39.711435 39.452463 39.745275 39.433115 39.730469 39.394531 C 39.72215 39.37285 39.695074 39.369687 39.552734 39.376953 L 39.384766 39.384766 L 39.367188 39.279297 C 39.356958 39.220557 39.329265 39.13449 39.306641 39.089844 C 39.285431 39.047987 39.270517 39.011172 39.271484 39.003906 L 39.273438 39.003906 C 39.280513 39.001375 39.325009 39.005306 39.376953 39.013672 C 39.522514 39.037114 39.694506 38.999844 39.771484 38.927734 C 39.846034 38.8579 39.795647 38.837616 39.65625 38.882812 C 39.509154 38.930505 39.395463 38.91117 39.15625 38.796875 C 39.121175 38.780114 39.10105 38.772631 39.085938 38.773438 z "
         xlink:href="#path29"
         id="path41"
         inkscape:href="#path29"
         d="m 38.898437,38.191406 c -0.188256,-0.0037 -0.266238,0.07148 -0.314453,0.111328 -0.04821,0.03985 -0.07241,0.06941 -0.09375,0.09766 -0.05815,0.07696 -0.04259,0.122043 -0.06641,0.179687 -0.06018,-0.03103 -0.09303,-0.08914 -0.173828,-0.101562 -0.04299,-0.0066 -0.103944,0.02429 -0.15625,0.0293 -0.03031,-0.01964 -0.05688,-0.06859 -0.08203,-0.07813 -0.160732,-0.06093 -0.222179,-0.03451 -0.28125,-0.02539 -0.05907,0.0091 -0.107392,0.02259 -0.158203,0.03906 -0.0108,-0.0023 -0.06145,-0.01831 -0.16211,-0.06641 -0.05459,-0.02608 -0.104502,-0.07646 -0.292969,-0.06641 -0.174131,0.0091 -0.299656,0.124028 -0.289062,0.115234 -0.0023,0.0019 -0.0054,0.0096 -0.0078,0.01172 -0.0073,0.0042 -0.0307,0.0063 -0.03711,0.0098 -0.04043,0.02216 -0.06438,0.04149 -0.08594,0.05859 -0.0262,0.02079 -0.04292,0.03932 -0.0625,0.05859 -0.01932,-0.04191 -0.02714,-0.07818 -0.07227,-0.126953 -0.07888,-0.08525 -0.238877,-0.165718 -0.382813,-0.160156 -0.153459,0.0059 -0.200408,0.0757 -0.265625,0.132812 -0.01834,0.0029 -0.06003,-0.0083 -0.07617,-0.0059 -0.0592,0.0091 -0.107095,0.02249 -0.158204,0.03906 -0.0108,-0.0023 -0.06145,-0.01831 -0.162109,-0.06641 -0.04865,-0.02324 -0.104635,-0.07635 -0.291016,-0.06641 -0.170711,0.009 -0.270711,0.09838 -0.291015,0.115234 -0.04667,0.03873 -0.122885,0.120019 -0.160156,0.230469 -0.03727,0.11045 -0.02804,0.215761 -0.01367,0.28125 0.02874,0.130977 0.06371,0.179873 0.105468,0.261719 0.0055,0.01075 0.0032,0.01116 0.0078,0.02148 -0.0032,0.0028 -0.0045,0.0029 -0.0078,0.0059 -0.07451,0.06558 -0.167181,0.230029 -0.179687,0.335938 -0.0085,0.0722 -5.61e-4,0.194119 0.05469,0.300781 0.02804,0.05413 0.06034,0.06852 0.09375,0.101563 -0.0046,0.0253 -0.01462,0.04372 -0.01758,0.07617 -0.01068,0.11707 0.08444,0.360003 0.138672,0.419921 0.111125,0.12279 0.412889,0.21558 0.59961,0.136719 0.18672,-0.07886 0.250161,-0.190735 0.30664,-0.287109 -0.02226,0.03799 0.0548,-0.04245 0.103516,-0.08984 0.0461,0.05434 0.06753,0.132536 0.11914,0.169922 0.03357,0.02432 0.06319,0.0516 0.154297,0.08984 0.04555,0.01912 0.113077,0.04614 0.21875,0.04102 0.02289,-0.0011 0.04356,-0.02538 0.06836,-0.03125 l 0.04492,0.0293 a 0.45575041,0.45575041 0 0 0 0.273437,0.07422 c 0.03947,-0.0021 0.07421,-0.04986 0.117188,-0.0625 0.04541,0.03259 0.07755,0.07165 0.142578,0.08984 0.116481,0.03259 0.25192,0.01488 0.345703,-0.02539 0.137722,-0.05913 0.173528,-0.135573 0.222656,-0.208984 0.077,0.09156 0.199863,0.157946 0.298828,0.173828 0.101462,0.01628 0.175829,0.0021 0.232422,-0.01367 0.113185,-0.03157 0.176108,-0.07337 0.244141,-0.119141 0.02205,-0.01484 0.0404,-0.03026 0.06055,-0.04492 0.05256,0.04745 0.0977,0.09801 0.210937,0.138672 0.146769,0.0527 0.292724,0.03247 0.367188,0.01758 6.39e-4,-1.27e-4 0.0032,-0.0018 0.0039,-0.002 0.110438,0.02927 0.200697,0.108565 0.294922,0.07031 0.173008,-0.07024 0.230748,-0.172472 0.285156,-0.263672 0.0059,0.0059 0.01733,0.02788 0.02148,0.03125 0.09985,0.08087 0.111424,0.134618 0.363282,0.132812 0.03207,-2.29e-4 0.120086,0.01476 0.261718,-0.0625 0.09574,-0.05222 0.124389,-0.138266 0.166016,-0.216796 0.05143,0.05813 0.105599,0.12301 0.189453,0.15039 0.03216,0.0105 0.05021,-0.0013 0.08008,0.002 0.01237,0.0227 0.01697,0.06861 0.02734,0.08008 0.111125,0.122793 0.41289,0.21558 0.599609,0.136719 0.144325,-0.06095 0.185386,-0.144646 0.236328,-0.222656 0.01215,0.01443 2.45e-4,0.01778 0.01563,0.0332 0.1112,0.111525 0.249088,0.142727 0.339844,0.146484 0.09076,0.0038 0.153383,-0.01183 0.208985,-0.0293 0.105623,-0.03318 0.184145,-0.08127 0.263671,-0.138672 0.02783,0.02547 0.05247,0.05269 0.0918,0.08008 0.08263,0.05754 0.259616,0.105469 0.333985,0.105469 0.09189,-3e-6 0.103712,0.0392 0.304687,-0.06836 0.01008,-0.0054 0.0082,-0.01553 0.01758,-0.02148 0.03193,0.02458 0.0474,0.05155 0.09375,0.07031 0.100421,0.04065 0.229769,0.04168 0.320313,0.01563 0.181088,-0.05211 0.234049,-0.135315 0.28125,-0.191406 0.06948,-0.08257 0.147102,-0.247736 0.15625,-0.382812 0.0011,-0.01578 -0.0042,-0.02435 -0.0039,-0.03906 0.0033,-0.0019 0.01056,-2.9e-5 0.01367,-0.002 0.082,-0.05074 0.106614,-0.08762 0.123047,-0.107422 0.09361,-0.112802 0.125295,-0.29743 0.113282,-0.398437 -7.66e-4,-0.0064 -0.003,-0.0076 -0.0039,-0.01367 0.01527,-0.01693 0.0047,-0.0048 0.02734,-0.02734 0.08338,-0.08301 0.145131,-0.143446 0.208984,-0.240234 0.03193,-0.04839 0.06857,-0.107826 0.08984,-0.208985 0.02127,-0.101159 0.0036,-0.260961 -0.06445,-0.371094 -0.0541,-0.08755 -0.162584,-0.172687 -0.257812,-0.205078 -0.09523,-0.03239 -0.166374,-0.02823 -0.21875,-0.02344 -0.0479,0.0044 -0.07077,0.0169 -0.103516,0.02539 -0.0217,-0.02039 -0.02609,-0.05115 -0.05078,-0.06641 -0.02891,-0.01793 -0.140481,-0.07173 -0.25,-0.07227 -0.265027,-0.0013 -0.320283,0.106513 -0.38086,0.164062 -0.0167,0.01586 -0.02648,0.03301 -0.04102,0.04883 -0.01716,-0.03187 -0.04447,-0.07947 -0.04492,-0.08008 -5.57e-4,-7.39e-4 -0.110667,-0.105023 -0.111328,-0.105469 -6.62e-4,-4.45e-4 -0.157435,-0.06819 -0.158203,-0.06836 -6.85e-4,-1.53e-4 -0.103753,-0.0063 -0.128907,-0.0078 -0.02452,0.0042 -0.120861,0.02141 -0.121093,0.02148 -0.219633,0.07321 -0.231972,0.159781 -0.265625,0.210937 -0.03365,0.05116 -0.05391,0.09182 -0.07227,0.134766 -0.001,0.0024 -9.35e-4,0.0054 -0.002,0.0078 -0.08739,-0.04115 -0.15901,-0.105525 -0.279297,-0.0957 -0.01391,0.0011 -0.01882,0.03013 -0.0332,0.0332 -0.03204,-0.02066 -0.06157,-0.07034 -0.08789,-0.08008 -0.157276,-0.05821 -0.220094,-0.0325 -0.279297,-0.02344 -0.0592,0.0091 -0.107095,0.02249 -0.158203,0.03906 -0.01007,-0.0022 -0.05911,-0.01813 -0.160156,-0.06641 -0.04254,-0.02032 -0.123867,-0.0408 -0.228516,-0.05078 -0.0153,-0.0097 -0.04082,-0.02728 -0.04102,-0.02734 -7.93e-4,-2.84e-4 -0.0852,-0.0228 -0.109375,-0.02539 -0.04835,-0.0052 -0.05907,-0.002 -0.05469,-0.002 -0.220655,-3.69e-4 -0.224152,0.04276 -0.289062,0.07422 -0.02934,0.01422 -0.0608,0.04122 -0.08984,0.05859 a 0.45575041,0.45575041 0 0 0 -0.117188,-0.04297 l -0.04297,0.0039 c -0.124672,0.006 -0.240504,0.07032 -0.337891,0.138672 -0.02575,-0.01604 -0.05041,-0.0578 -0.07227,-0.06641 -0.157581,-0.06204 -0.222484,-0.03616 -0.283203,-0.02734 -0.06072,0.0088 -0.110085,0.02219 -0.162109,0.03906 -0.0086,-0.0017 -0.06031,-0.01581 -0.162109,-0.06445 -0.01961,-0.0094 -0.08712,-0.01418 -0.117188,-0.02734 -0.01089,-0.01319 -0.0094,-0.02148 -0.02344,-0.03516 -0.07226,-0.07053 -0.202386,-0.128643 -0.314454,-0.13086 z m 4.738282,0.28711 0.296875,0.203125 0.15039,0.24414 a 0.45575041,0.45575041 0 0 0 -0.447265,-0.447265 z m -2.023438,0.429687 c -7.9e-4,0.0028 -0.0051,0.0031 -0.0059,0.0059 -0.02698,9.63e-4 -0.05717,-0.0017 -0.08984,0 z m -3.980469,0.002 c -5.3e-4,0.0029 4.77e-4,0.0012 0,0.0039 -0.01528,8.67e-4 -0.03107,-9.06e-4 -0.04883,0 z m 2.083985,0.002 c 6.51e-4,0.002 0.002,0.0085 0.002,0.0098 -0.07204,-0.0057 -0.119833,-0.0035 -0.1875,0 z m 0.0059,0 h 0.02539 c -0.0016,0.0037 -0.0063,0.006 -0.0078,0.0098 -3.99e-4,-4e-5 -0.0016,4e-5 -0.002,0 -0.0057,-5.81e-4 -0.0083,4.64e-4 -0.01367,0 -0.0016,-0.0033 -3.28e-4,-0.0064 -0.002,-0.0098 z M 35.5625,40.050781 c -0.02124,0.01093 -0.08076,0.0334 -0.08008,0.0332 3.3e-5,-9e-6 -0.0054,-6.9e-5 -0.0059,0 0.02307,-0.01172 0.06249,-0.02113 0.08594,-0.0332 z m 1.892578,0 c -0.02096,0.01079 -0.08076,0.0334 -0.08008,0.0332 4.5e-5,-1.3e-5 -0.0069,0.0018 -0.0078,0.002 0.02417,-0.01207 0.06362,-0.02266 0.08789,-0.03516 z m -1.548828,0.08594 c 0.0014,0.002 0.0025,0.0038 0.0039,0.0059 -0.01018,-0.0035 -0.0018,0.0026 -0.01367,-0.002 0.0032,0.0012 0.0065,-0.005 0.0098,-0.0039 z"
         transform="translate(0.0011035)"
         inkscape:label="EWENEMENT-OFFSET" />
      <path
         id="path29"
         style="display:inline;fill:#ffffff;fill-opacity:1;stroke:#fff9f9;stroke-width:0.1;stroke-dasharray:none;stroke-opacity:1"
         inkscape:label="EWENEMENT"
         d="m 31.388265,54.607524 c 0.0375,-0.002 0.08815,0.01629 0.175184,0.05788 0.593576,0.283607 0.875234,0.332283 1.240233,0.213941 0.345895,-0.112149 0.468688,-0.06528 0.283704,0.108004 -0.191012,0.178931 -0.616528,0.271591 -0.977717,0.213423 -0.128892,-0.02076 -0.242375,-0.03109 -0.259933,-0.02481 h -4.61e-4 l -4.6e-4,5.22e-4 -4.6e-4,5.22e-4 v 5.22e-4 h -4.61e-4 c -8.6e-5,2.15e-4 6.3e-5,0.0013 0,0.0015 -0.0024,0.01803 0.03522,0.110079 0.08785,0.21394 0.05614,0.110785 0.12293,0.320883 0.148312,0.466638 l 0.04599,0.265101 0.416512,-0.02119 c 0.353196,-0.01803 0.420158,-0.01194 0.440801,0.04186 0.03674,0.09574 -0.05065,0.14484 -0.366903,0.204639 -0.41067,0.07765 -0.496952,0.143845 -0.497644,0.383439 -3.07e-4,0.105563 -0.01237,0.234601 -0.02636,0.286804 l -0.02532,0.09509 0.198436,-0.09922 c 0.52803,-0.264427 1.107866,-0.364492 1.220598,-0.210323 0.06239,0.08532 0.0015,0.189242 -0.09043,0.153996 -0.09535,-0.03659 -0.471393,0.06932 -0.69815,0.196887 -0.28123,0.158218 -0.636849,0.487124 -0.766878,0.709001 -0.152254,0.259802 -0.306529,0.324967 -0.434599,0.183451 -0.08997,-0.09941 -0.08464,-0.159387 0.05581,-0.656808 0.118476,-0.419601 0.150329,-0.630794 0.09043,-0.599963 -0.283732,0.146052 -0.342151,0.157976 -0.442868,0.09198 -0.07231,-0.04738 -0.09695,-0.09501 -0.08785,-0.172082 0.01017,-0.08614 0.06931,-0.13699 0.306957,-0.264584 0.285005,-0.153022 0.294556,-0.163157 0.294556,-0.310575 0,-0.285315 -0.09453,-0.622995 -0.270784,-0.968416 -0.189866,-0.372098 -0.208419,-0.459497 -0.115755,-0.536402 0.01801,-0.01495 0.03538,-0.02363 0.05788,-0.02481 z m 2.351277,-0.0863 c 0.116493,-0.0045 0.180087,0.195986 0.159681,0.557072 -0.03745,0.662714 0.08143,1.871877 0.198437,2.016414 0.01977,0.02442 0.0339,0.03837 0.04186,0.03824 h 4.6e-4 4.6e-4 l 4.61e-4,-5.17e-4 h 4.6e-4 l 4.6e-4,-5.17e-4 h 4.61e-4 c 0.01,-0.0085 0.0071,-0.05632 -0.0026,-0.160197 -0.04357,-0.467644 0.109222,-1.098515 0.330211,-1.363224 0.180284,-0.21595 0.21084,-0.151019 0.21084,0.449068 0,0.480242 0.0093,0.546842 0.101803,0.738456 0.05592,0.115861 0.152729,0.272221 0.21549,0.347265 l 0.114206,0.136426 -0.0021,-0.664559 c -0.002,-0.694887 0.0363,-0.929786 0.219109,-1.34307 0.076,-0.171808 0.360836,-0.478007 0.444416,-0.478007 0.21444,0 0.214355,0.173336 -5.22e-4,0.79685 -0.300751,0.872712 -0.291213,0.819758 -0.26665,1.470712 0.01234,0.327025 0.02784,0.640251 0.03462,0.696081 0.01175,0.09668 -0.03378,0.242466 -0.254187,0.254005 L 35.091003,57.883805 34.843991,57.573229 C 34.708345,57.402534 34.56577,57.20547 34.527213,57.135013 l -0.06976,-0.128157 -0.02067,0.40566 c -0.02357,0.47083 -0.05094,0.498228 -0.312126,0.309025 -0.236253,-0.171141 -0.355036,-0.345722 -0.472322,-0.694531 -0.196304,-0.583802 -0.241839,-0.823342 -0.260966,-1.380278 -0.02137,-0.622248 0.01737,-0.832045 0.188618,-1.02371 0.05996,-0.06711 0.113581,-0.100056 0.159164,-0.101803 z m 2.341068,0.0863 c 0.0375,-0.002 0.08815,0.01629 0.175184,0.05788 0.593576,0.283607 0.875234,0.332283 1.240233,0.213941 0.345895,-0.112149 0.468688,-0.06528 0.283704,0.108004 -0.191012,0.178931 -0.616528,0.271591 -0.977717,0.213423 -0.128892,-0.02076 -0.242375,-0.03109 -0.259933,-0.02481 h -4.61e-4 l -4.6e-4,5.22e-4 -4.6e-4,5.22e-4 v 5.22e-4 h -4.61e-4 c -8.6e-5,2.15e-4 6.3e-5,0.0013 0,0.0015 -0.0024,0.01803 0.03522,0.110079 0.08785,0.21394 0.05614,0.110785 0.12293,0.320883 0.148312,0.466638 l 0.04599,0.265101 0.416512,-0.02119 c 0.353196,-0.01803 0.420158,-0.01194 0.440801,0.04186 0.03674,0.09574 -0.05065,0.14484 -0.366903,0.204639 -0.41067,0.07765 -0.496952,0.143845 -0.497644,0.383439 -3.07e-4,0.105563 -0.01237,0.234601 -0.02636,0.286804 l -0.02532,0.09509 0.198436,-0.09922 c 0.52803,-0.264427 1.107866,-0.364492 1.220598,-0.210323 0.06239,0.08532 0.0015,0.189242 -0.09043,0.153996 -0.09535,-0.03659 -0.471393,0.06932 -0.69815,0.196887 -0.28123,0.158218 -0.636849,0.487124 -0.766878,0.709001 -0.152254,0.259802 -0.306529,0.324967 -0.434599,0.183451 -0.08997,-0.09941 -0.08464,-0.159387 0.05581,-0.656808 0.118476,-0.419601 0.150329,-0.630794 0.09043,-0.599963 -0.283732,0.146052 -0.342151,0.157976 -0.442868,0.09198 -0.07231,-0.04738 -0.09695,-0.09501 -0.08785,-0.172082 0.01017,-0.08614 0.06931,-0.13699 0.306957,-0.264584 0.285005,-0.153022 0.294556,-0.163157 0.294556,-0.310575 0,-0.285315 -0.09453,-0.622995 -0.270784,-0.968416 -0.189866,-0.372098 -0.208419,-0.459497 -0.115755,-0.536402 0.01801,-0.01495 0.03538,-0.02363 0.05788,-0.02481 z m 4.333977,-0.297144 c 0.04818,9.52e-4 0.04924,0.141237 0.0047,0.422713 -0.07,0.441874 -0.04819,1.292198 0.04341,1.698605 0.03444,0.152814 0.127294,0.450333 0.206189,0.660941 0.09186,0.245222 0.143144,0.453658 0.143144,0.57981 0,0.188147 -0.0054,0.198487 -0.126607,0.222725 -0.27108,0.05422 -0.334226,0.03176 -0.608749,-0.216007 -0.277148,-0.250137 -0.429024,-0.458992 -0.858345,-1.177706 -0.139349,-0.23328 -0.276459,-0.431114 -0.304375,-0.439767 -0.0369,-0.01144 -0.05099,0.05436 -0.05116,0.241329 -1.32e-4,0.141438 -0.02709,0.438015 -0.06046,0.659392 -0.03337,0.221376 -0.06098,0.420284 -0.06098,0.441833 0,0.0025 0.0015,0.0057 0.0031,0.0078 0.01416,0.01622 0.07637,0.01901 0.15968,0.0057 0.281005,-0.04494 0.201577,0.09755 -0.207222,0.372587 -0.228835,0.153957 -0.372555,0.194724 -0.430465,0.122473 -0.113814,-0.142 -0.09506,-0.389571 0.06976,-0.926041 0.122374,-0.398299 0.14581,-0.694822 0.09819,-1.235067 -0.02378,-0.269769 -0.03509,-0.531828 -0.02532,-0.58291 0.04834,-0.252851 0.392284,-0.199361 0.658875,0.102836 0.182713,0.207116 0.305381,0.432662 0.54777,1.00459 0.08518,0.200989 0.195108,0.429299 0.244429,0.507462 0.1079,0.170994 0.242087,0.325162 0.276469,0.321428 2.76e-4,-5.3e-5 0.0013,-4.42e-4 0.0016,-5.18e-4 2.46e-4,-9.6e-5 0.0013,-3.97e-4 0.0016,-5.17e-4 l 5.22e-4,-5.17e-4 5.22e-4,-5.17e-4 5.21e-4,-5.17e-4 c 1.43e-4,-2.11e-4 9.06e-4,-0.0013 10e-4,-0.0016 0.0069,-0.01901 -0.01454,-0.131576 -0.04909,-0.258382 -0.08063,-0.295928 -0.09007,-1.288222 -0.01602,-1.683101 0.06852,-0.365381 0.164164,-0.660546 0.251148,-0.775663 0.03703,-0.04901 0.06596,-0.07378 0.0863,-0.07338 z m 5.018299,0.197404 c 0.01292,2.2e-5 0.02257,0.0024 0.0279,0.0078 0.01061,0.01061 -0.002,0.280594 -0.0279,0.599446 -0.05163,0.634518 -0.01547,1.367174 0.08475,1.853634 0.01813,0.08802 0.03828,0.16787 0.06046,0.237712 0.05041,0.15873 0.08314,0.291119 0.07648,0.306958 l -5.22e-4,5.17e-4 h -5.22e-4 v 5.17e-4 h -5.22e-4 c -0.01279,0 -0.08322,-0.02153 -0.156579,-0.04806 -0.113982,-0.04122 -0.145177,-0.03809 -0.21239,0.02274 -0.05019,0.04542 -0.08817,0.05601 -0.104904,0.02894 -0.05029,-0.08137 -0.109771,-0.614157 -0.136942,-1.144116 -0.0091,-0.177287 -0.0147,-0.354565 -0.01499,-0.51418 -6.91e-4,-0.385231 -0.0056,-0.700216 -0.01137,-0.700216 -0.0058,0 -0.09733,0.129434 -0.203605,0.287838 -0.09693,0.144478 -0.162808,0.258186 -0.209289,0.376204 -0.06241,0.15847 -0.0901,0.325041 -0.111105,0.584461 -0.03299,0.407434 -0.07459,0.525252 -0.205672,0.584977 -0.150942,0.06877 -0.283745,-0.03796 -0.369486,-0.296106 -0.07093,-0.213549 -0.06935,-0.548783 0.0057,-1.233 0.01273,-0.116123 0.0122,-0.182693 -5.22e-4,-0.198437 -2.45e-4,-2.61e-4 -0.0013,-0.0013 -0.0016,-0.0016 -2.61e-4,-1.84e-4 -0.0013,-8.75e-4 -0.0015,-10e-4 -8.44e-4,-3.53e-4 -0.0027,-4.76e-4 -0.0036,-5.22e-4 -0.02043,0.0012 -0.05967,0.07501 -0.117305,0.221692 -0.200565,0.510411 -0.233133,0.697287 -0.259416,1.473811 -0.02743,0.810322 -0.03552,0.838834 -0.234611,0.840259 -0.04777,3.42e-4 -0.129157,-0.03357 -0.180868,-0.07545 -0.0849,-0.06875 -0.09322,-0.105283 -0.08423,-0.375688 0.01359,-0.408742 0.141008,-1.01237 0.340548,-1.614372 0.143438,-0.432747 0.291756,-0.713356 0.46147,-0.862479 0.09425,-0.08282 0.195363,-0.124934 0.305408,-0.130225 l 0.137976,-0.0067 -0.01344,0.345198 c -0.0042,0.112311 -0.01148,0.224396 -0.01912,0.305925 -0.0053,0.05627 -0.01064,0.09768 -0.0155,0.114722 -0.02508,0.08783 0.0042,0.08419 0.09405,-0.01705 0.05133,-0.05786 0.122258,-0.147528 0.214457,-0.270267 0.137731,-0.183354 0.32275,-0.394864 0.410828,-0.470256 0.131621,-0.112663 0.387036,-0.23373 0.47749,-0.233577 z m -4.525986,0.11848 c 0.0375,-0.002 0.08815,0.01629 0.175184,0.05788 0.593576,0.283607 0.875234,0.332283 1.240233,0.213941 0.345895,-0.112149 0.468688,-0.06528 0.283704,0.108004 -0.191012,0.178931 -0.616528,0.271591 -0.977717,0.213423 -0.128892,-0.02076 -0.242375,-0.03109 -0.259933,-0.02481 h -4.61e-4 l -4.6e-4,5.22e-4 -4.6e-4,5.22e-4 v 5.22e-4 h -4.61e-4 c -8.6e-5,2.15e-4 6.3e-5,0.0013 0,0.0015 -0.0024,0.01803 0.03522,0.110079 0.08785,0.21394 0.05614,0.110785 0.12293,0.320883 0.148312,0.466638 l 0.04599,0.265101 0.416512,-0.02119 c 0.353196,-0.01803 0.420158,-0.01194 0.440801,0.04186 0.03674,0.09574 -0.05065,0.14484 -0.366903,0.204639 -0.41067,0.07765 -0.496952,0.143845 -0.497644,0.383439 -3.07e-4,0.105563 -0.01237,0.234601 -0.02636,0.286804 l -0.02532,0.09509 0.198436,-0.09922 c 0.52803,-0.264427 1.107866,-0.364492 1.220598,-0.210323 0.06239,0.08532 0.0015,0.189242 -0.09043,0.153996 -0.09535,-0.03659 -0.471393,0.06932 -0.69815,0.196887 -0.28123,0.158218 -0.636849,0.487124 -0.766878,0.709001 -0.152254,0.259802 -0.306529,0.324967 -0.434599,0.183451 -0.08997,-0.09941 -0.08464,-0.159387 0.05581,-0.656808 0.118476,-0.419601 0.150329,-0.630794 0.09043,-0.599963 -0.283732,0.146052 -0.342151,0.157976 -0.442868,0.09198 -0.07231,-0.04738 -0.09695,-0.09501 -0.08785,-0.172082 0.01017,-0.08614 0.06931,-0.13699 0.306957,-0.264584 0.285005,-0.153022 0.294556,-0.163157 0.294556,-0.310575 0,-0.285315 -0.09453,-0.622995 -0.270784,-0.968416 -0.189866,-0.372098 -0.208419,-0.459497 -0.115755,-0.536402 0.01801,-0.01495 0.03538,-0.02363 0.05788,-0.02481 z m 4.934239,-0.01874 c 0.0375,-0.002 0.08815,0.01629 0.175184,0.05788 0.593576,0.283607 0.875234,0.332283 1.240233,0.213941 0.345895,-0.112149 0.468688,-0.06528 0.283704,0.108004 -0.191012,0.178931 -0.616528,0.271591 -0.977717,0.213423 -0.128892,-0.02076 -0.242375,-0.03109 -0.259933,-0.02481 h -4.61e-4 l -4.6e-4,5.22e-4 -4.6e-4,5.22e-4 v 5.22e-4 h -4.61e-4 c -8.6e-5,2.15e-4 6.3e-5,0.0013 0,0.0015 -0.0024,0.01803 0.03522,0.110079 0.08785,0.21394 0.05614,0.110785 0.12293,0.320883 0.148312,0.466638 l 0.04599,0.265101 0.416512,-0.02119 c 0.353196,-0.01803 0.420158,-0.01194 0.440801,0.04186 0.03674,0.09574 -0.05065,0.14484 -0.366903,0.204639 -0.41067,0.07765 -0.496952,0.143845 -0.497644,0.383439 -3.07e-4,0.105563 -0.01237,0.234601 -0.02636,0.286804 l -0.02532,0.09509 0.198436,-0.09922 c 0.52803,-0.264427 1.107866,-0.364492 1.220598,-0.210323 0.06239,0.08532 0.0015,0.189242 -0.09043,0.153996 -0.09535,-0.03659 -0.471393,0.06932 -0.69815,0.196887 -0.28123,0.158218 -0.636849,0.487124 -0.766878,0.709001 -0.152254,0.259802 -0.306529,0.324967 -0.434599,0.183451 -0.08997,-0.09941 -0.08464,-0.159387 0.05581,-0.656808 0.118476,-0.419601 0.150329,-0.630794 0.09043,-0.599963 -0.283732,0.146052 -0.342151,0.157976 -0.442868,0.09198 -0.07231,-0.04738 -0.09695,-0.09501 -0.08785,-0.172082 0.01017,-0.08614 0.06931,-0.13699 0.306957,-0.264584 0.285005,-0.153022 0.294556,-0.163157 0.294556,-0.310575 0,-0.285315 -0.09453,-0.622995 -0.270784,-0.968416 -0.189866,-0.372098 -0.208419,-0.459497 -0.115755,-0.536402 0.01801,-0.01495 0.03538,-0.02363 0.05788,-0.02481 z m 4.352696,-0.294044 c 0.03479,-0.0033 0.03652,0.0697 0.01137,0.323494 -0.0185,0.186685 -0.03282,0.604292 -0.03152,0.928109 0.0026,0.654775 0.05649,0.946953 0.287837,1.557011 0.160995,0.42455 0.183391,0.729678 0.05788,0.796851 -0.0432,0.02312 -0.143392,0.04186 -0.222725,0.04186 -0.127074,0 -0.186862,-0.04202 -0.501262,-0.355017 -0.292801,-0.291494 -0.418898,-0.460741 -0.701249,-0.941028 -0.189278,-0.321968 -0.366927,-0.592737 -0.394808,-0.602031 -0.03657,-0.01219 -0.05075,0.04928 -0.05168,0.220142 -7.06e-4,0.130271 -0.02811,0.419533 -0.06046,0.642855 -0.08074,0.557263 -0.08767,0.52234 0.10232,0.491959 0.241545,-0.03862 0.211729,0.06053 -0.08372,0.27802 -0.261003,0.192139 -0.497912,0.268689 -0.579293,0.187068 -0.07829,-0.07852 -0.04511,-0.448359 0.07493,-0.836641 0.128721,-0.416344 0.160647,-0.800513 0.113171,-1.35909 -0.01803,-0.212156 -0.02722,-0.435706 -0.02015,-0.497128 0.02535,-0.220276 0.300896,-0.24236 0.537952,-0.04289 0.200865,0.169016 0.364239,0.443335 0.629936,1.056266 0.252698,0.582946 0.422297,0.864547 0.520898,0.864547 0.04239,0 0.04082,-0.04257 -0.0083,-0.213424 -0.0881,-0.306599 -0.0816,-1.403688 0.01085,-1.837097 0.07373,-0.345616 0.213678,-0.673429 0.30024,-0.702283 0.0026,-8.74e-4 0.0054,-0.0013 0.0078,-0.0016 z m 2.076359,0.125574 c 0.01157,5.8e-5 0.02198,0.0032 0.03101,0.0088 0.06618,0.0409 0.05029,0.165078 -0.04651,0.364318 -0.04659,0.09589 -0.07606,0.183991 -0.06925,0.201538 1.32e-4,2.46e-4 3.65e-4,8.29e-4 5.17e-4,10e-4 v 5.21e-4 h 5.18e-4 l 5.17e-4,5.22e-4 5.17e-4,5.22e-4 c 0.04231,0.02071 0.601463,-0.114991 0.903821,-0.220141 0.268573,-0.0934 0.371819,-0.103941 0.410827,-0.04082 0.06222,0.100677 -0.04764,0.267871 -0.420129,0.638721 -0.449392,0.447421 -0.536586,0.599542 -0.45682,0.7953 0.08538,0.209526 0.09608,0.307252 0.04186,0.372587 -0.0455,0.05483 -0.06262,0.05095 -0.150378,-0.03101 -0.277819,-0.259454 -0.281924,-0.572535 -0.0124,-0.967382 l 0.173116,-0.253732 -0.15658,0.02739 c -0.08618,0.0151 -0.242134,0.03819 -0.346749,0.05168 l -0.190169,0.02481 -0.03359,0.268717 c -0.05499,0.446298 -0.0319,0.933705 0.06511,1.381311 0.103244,0.476368 0.0914,0.632007 -0.06253,0.814938 -0.111136,0.132066 -0.184025,0.153202 -0.249598,0.07234 -0.07722,-0.09523 -0.177623,-0.456406 -0.211873,-0.761194 -0.0309,-0.274964 -0.0079,-0.808429 0.06511,-1.521354 l 0.02584,-0.252698 -0.313159,-0.05064 c -0.166648,-0.02688 -0.311591,-0.0414 -0.329179,-0.03359 l -5.17e-4,5.22e-4 h -5.16e-4 v 5.22e-4 l -5.17e-4,5.22e-4 c -1.72e-4,4.6e-4 -4.69e-4,0.002 -5.17e-4,0.0026 4.11e-4,0.02028 0.05435,0.105868 0.126608,0.200505 0.17631,0.230906 0.184735,0.380134 0.03049,0.523999 -0.181539,0.16932 -0.29295,0.213996 -0.362252,0.144694 -0.05114,-0.05114 -0.04738,-0.08212 0.02997,-0.241329 l 0.08888,-0.182418 -0.147795,-0.214974 c -0.190173,-0.276463 -0.223201,-0.401731 -0.12454,-0.473873 0.09161,-0.06699 0.195057,-0.06848 0.590661,-0.0083 0.169504,0.0258 0.354995,0.03507 0.412378,0.02067 0.06636,-0.01665 0.17333,-0.122504 0.293523,-0.290938 0.172438,-0.241651 0.313284,-0.375063 0.394291,-0.374655 z"
         transform="matrix(0.40300355,0,0,0.40300355,22.600896,16.759476)" />
    </g>
    <path
       id="path53"
       style="fill:#000000;fill-opacity:1;stroke-width:0.259183"
       inkscape:label="DOJO"
       d="m 23.322362,40.965207 c -0.115594,-0.392252 -0.526498,-0.556878 -0.864882,-0.711269 -0.16422,-0.08458 -0.955241,-0.333107 -1.260903,-0.311208 -0.627139,-0.0021 -1.257956,0.07782 -1.855401,0.272769 0.18544,0.145715 0.648916,-0.167564 0.667354,0.150977 -0.04444,0.228818 0.42235,-0.07295 0.493803,0.104898 -0.09636,0.06014 -0.306041,0.167512 -0.05777,0.14381 0.177897,-0.0015 0.688191,-0.08866 0.514688,0.231344 -0.272551,0.552673 -0.639367,1.06294 -0.818765,1.657999 -0.05206,0.061 -0.02635,0.183518 0.06263,0.09005 -0.08825,0.264561 -0.402075,0.324064 -0.629857,0.419811 -0.281432,0.08602 -0.587162,0.189691 -0.721288,0.476152 -0.11887,0.240902 -0.431794,0.226442 -0.61177,0.341007 0.553309,0.01034 1.111719,-0.03929 1.64789,-0.18258 0.08554,0.09817 -0.0662,0.452079 0.107712,0.188439 0.07905,-0.149221 0.201291,-0.121063 0.147219,0.04285 0.03093,0.183157 -0.179962,0.553194 -0.122075,0.603739 0.216183,-0.363164 0.382738,-0.79467 0.765551,-1.017913 0.392518,0.032 0.701206,-0.280739 1.081401,-0.317931 0.27821,-0.105236 0.498832,-0.312431 0.724189,-0.499075 0.131008,0.170569 0.298223,-0.150201 0.423409,-0.227981 0.154185,-0.177558 0.314496,-0.381654 0.343886,-0.621168 -0.02414,-0.179842 -0.02456,-0.355975 0.06908,-0.478114 -0.0079,-0.125338 -0.06755,-0.239198 -0.106153,-0.356635 z m -1.469554,-0.174533 c 0.28554,0.0565 0.618961,0.13988 0.760768,0.42335 0.01801,0.456325 -0.2956,0.867161 -0.699087,1.052789 -0.296854,0.168912 -0.618122,0.287887 -0.936826,0.407949 0.17821,-0.253431 0.171722,-0.603977 0.422694,-0.807368 -2.85e-4,-0.266321 0.18611,-0.434379 0.248291,-0.674832 0.03339,-0.157928 0.155938,-0.282103 0.204151,-0.401888 z m 4.654974,1.992175 c 0.148887,-0.02187 0.06309,-0.284657 0.129173,-0.410523 0.03433,-0.125338 -0.009,-0.308267 0.150555,-0.317626 0.188009,-0.263287 0.298026,-0.575693 0.38452,-0.885374 0.100782,-0.343374 -4.66e-4,-0.751017 -0.301034,-0.962737 -0.429686,-0.307891 -0.993941,-0.306533 -1.494682,-0.223703 -0.253306,0.05158 -0.507665,0.105592 -0.755192,0.179528 -0.369887,0.161185 -0.732093,0.350107 -1.056879,0.59048 -0.04492,0.04121 -0.183422,0.133972 -0.03026,0.107979 0.243617,-0.05341 0.46776,-0.167596 0.704084,-0.244717 -0.09455,0.08786 -0.210419,0.160054 -0.284895,0.263787 0.184719,-0.03041 0.354144,-0.14009 0.536855,-0.191084 0.09805,-0.07475 0.374148,-0.0491 0.187914,0.08548 -0.173309,0.07094 -0.326311,0.190004 -0.42527,0.350909 -0.154741,0.207682 -0.342959,0.391733 -0.450847,0.631439 -0.121294,0.227977 -0.223104,0.470146 -0.253286,0.728007 -0.111561,0.120284 -0.0454,0.306599 -0.02469,0.457437 0.02583,0.189572 0.116251,0.371146 0.28116,0.476799 0.310247,0.225315 0.732284,0.286652 1.093292,0.158806 0.145955,-0.107359 0.33595,0.126466 0.464269,-0.07222 0.253196,-0.235209 0.506362,-0.478986 0.702693,-0.764713 0.008,-0.08648 0.186305,0.0051 0.209002,-0.135576 0.02353,-0.04777 0.07659,-0.1067 0.03511,-0.0066 -0.03951,0.07627 -0.04886,0.198243 0.04947,0.07713 0.122116,-0.153085 0.153542,-0.0269 0.148935,0.107322 z M 26.025474,40.54838 c 0.216353,-0.004 0.494657,0.170644 0.432984,0.416716 -0.0989,0.403001 -0.368136,0.73758 -0.628045,1.050948 -0.264954,0.296822 -0.552833,0.585259 -0.901606,0.781994 -0.166464,0.07656 -0.407467,0.137394 -0.550278,-0.01474 -0.09304,-0.194711 0.009,-0.422511 0.07478,-0.612702 0.172731,-0.429034 0.512548,-0.755088 0.846395,-1.061623 0.223801,-0.196439 0.433915,-0.42222 0.702714,-0.556744 z m 4.537782,-1.465001 c -0.209938,0.227091 -0.279077,0.56519 -0.522889,0.765449 -0.117835,0.0414 0.02282,-0.167561 -0.133088,-0.04326 -0.199301,0.135454 -0.429571,0.07364 -0.622314,0.23127 -0.635668,0.226034 -1.318306,0.29402 -1.946718,0.542528 -0.127254,0.139033 0.261223,0.0034 0.336116,0.01636 0.139316,-0.0523 0.353522,0.144006 0.112524,0.162619 -0.234033,0.02591 0.180753,0.101436 0.253003,0.106725 0.291968,0.05823 0.602865,0.01096 0.88464,0.114827 -0.06151,0.238403 -0.28248,0.441099 -0.417806,0.655078 -0.175375,0.228098 -0.282601,0.497266 -0.46717,0.720142 -0.253342,0.325206 -0.474017,0.691464 -0.810132,0.939359 -0.204822,0.172975 -0.470632,-0.09573 -0.516007,-0.29643 -0.07482,-0.104823 -0.219426,-0.368438 -0.201724,-0.09132 -0.01569,0.310898 0.07318,0.62825 0.295325,0.853946 0.159884,0.234129 0.470557,0.29764 0.727383,0.199465 0.12217,-0.07402 0.139494,-0.218538 0.307239,-0.242165 0.202734,-0.205135 0.408007,-0.416226 0.656672,-0.566554 -0.06676,-0.204223 0.137945,-0.280645 0.249184,-0.375573 0.04454,-0.234896 0.271063,-0.355609 0.349591,-0.581314 0.243396,-0.444317 0.443945,-0.920548 0.769454,-1.313148 0.144243,-0.184501 0.386296,-0.207081 0.602692,-0.195887 0.121185,-0.13117 0.165149,-0.279098 0.384111,-0.333679 0.19961,-0.08582 0.396875,-0.219789 0.636384,-0.257377 0.130328,-0.03589 0.196202,-0.102344 0.01922,-0.07963 -0.438449,-0.02426 -0.883255,0.01133 -1.317241,-0.06258 0.07815,-0.231895 0.23295,-0.465611 0.327343,-0.704392 0.01489,-0.0513 0.05976,-0.112572 0.04413,-0.164528 z m 2.332912,0.869786 c -0.236749,-0.0022 -0.468118,0.09041 -0.705863,0.04562 -0.220147,-0.01729 -0.501472,-0.05407 -0.649854,0.150557 -0.167562,0.120174 -0.392546,0.128451 -0.536274,0.287142 -0.14143,0.09733 -0.43033,0.05961 -0.480296,0.210756 0.04665,0.06565 -0.177562,0.217483 -0.239893,0.311465 -0.06001,0.05488 -0.199083,0.226729 -0.04394,0.112328 0.276992,-0.162451 0.55173,-0.333403 0.852678,-0.448902 0.04245,0.102913 -0.262586,0.20593 -0.172922,0.252171 0.308353,-0.0956 0.594425,-0.263207 0.917022,-0.311146 -0.09675,0.198506 -0.318883,0.29213 -0.486967,0.421131 -0.190722,0.10475 -0.247705,0.320928 -0.387507,0.47005 -0.220389,0.253301 -0.373374,0.563413 -0.423445,0.896465 -0.05533,0.179626 -0.278008,0.341695 -0.09753,0.53514 0.108016,0.16336 0.07177,0.46592 0.32937,0.536162 0.250333,0.168522 0.561771,0.23264 0.859004,0.184166 0.191058,-0.03645 0.408754,-0.009 0.574161,-0.125326 0.230166,-0.167445 0.431286,-0.371085 0.64589,-0.557287 0.120942,-0.08368 0.107517,-0.268111 0.27337,-0.230189 0.225119,-0.05536 0.407876,-0.220748 0.46349,-0.45979 0.02421,-0.194782 0.269748,-0.289538 0.30322,-0.502158 0.162061,-0.358142 0.326463,-0.783065 0.145792,-1.166355 -0.122388,-0.327956 -0.438761,-0.565838 -0.787506,-0.594547 -0.116457,-0.01687 -0.234464,-0.0204 -0.351986,-0.01753 z m 0.144943,0.613298 c 0.262791,-0.01013 0.431403,0.299404 0.298607,0.521818 -0.178329,0.485551 -0.530578,0.882507 -0.88556,1.248607 -0.253148,0.235186 -0.531745,0.502151 -0.89193,0.539045 -0.256616,0.04785 -0.360319,-0.23807 -0.263197,-0.436203 0.197017,-0.661055 0.685746,-1.203717 1.255473,-1.575445 0.134422,-0.148636 0.255237,-0.326191 0.486607,-0.297822 z" />
  </g>
</svg>
