<svg xmlns="http://www.w3.org/2000/svg" xml:space="preserve" width="72" height="36" viewBox="0 0 19.05 9.525"><path d="M3.124 4.473c.302.423.572-.562.127-.185.018-.8 1.303.326 1.185-.689.27-.516-.33-1.774-.846-1.153.106.205.595.282.078.32-.348-.34-1.123-.693-.975.155.014.53.066 1.14.431 1.552zM2.154 7.7c.034-.869.431-1.712.305-2.585.024-.507-.888-1.212-.367-1.525-.077.633.629.055.36-.333.116-.502-.743-1.324-.852-.5-.055.318.294.87-.145.349-.333-.816.551-1.597 1.34-1.573.999-.057 2.13.263 2.731 1.112.413.32-.574 1.144-.31.424-.597-.424-.213.804-.347 1.096-.057.556-.364 1.495-1.085 1.295-.325-.052-.445-.394-.009-.203.587-.417-.98-.544-.845.116-.323.89.576 1.806.062 2.674-.086.334-.761.904-.795.747.476-.218 1.061-1.371.234-1.386-.24.184-.04.968-.277.292Zm4.287-2.039c-.092-.496-1.213-1.537-.24-1.664.278.194-.52.063-.14.434.711.213.459-1.06.05-1.324-.59-.288-.132-1.35.131-1.174-.618.347.066.954.457.427.463-.499.144-1.25-.48-1.425.75.119 1.137.95.892 1.63-.012.384.374 1.094-.121 1.25.269-.366-.236-.74-.299-.222-.118.304-.056 1.268.382 1.001-.055-.367-.117-.48.15-.103.211.734-.762 1.452-.102 2.15.22.341.22 1.044-.358.943.784-.365-.633-.836-.357-.04-.164.501.695.973.707 1.122-.798-.259-1.188-1.314-.762-2.034.093-.315.082-.646.09-.97Zm4.979 2.69c-.78-.331-.453-1.372-.968-1.905-.607-.14-.693 1.148-.106 1.307-.75.404-1.148-.535-1.566-.973-.455-.272-.08.76-.455.158-.255-.75.35-1.481.23-2.254-.071-.793-.78-1.449-.636-2.268.139-.452.817-.086.274-.02.019.828.86-.008.259-.341-.343-.422-1.122.054-1.093.197.17-.737 1.235-.544 1.53.004.44.796-.264 1.683.06 2.487.492.318.064-.334.227-.278.808.112-.093 1.073.425 1.402.51-.326.437-1.192 1.085-1.392-.694.393.122 1.868.505.836.154-.274.409-1.219.049-1.104-.245.183-.055-.737.31-.693.646-.508.517-1.537 1.174-2.014.782-.256-.615.408-.108.845.552.619 1.213-.56 1.074-1.096.045-.342-.83-.804-.137-.433.588.442.315 1.402-.133 1.862-.318.369-1.396.878-.852 1.407.265-.094-.079-.692.279-.277.18.943-1.376.958-1.288 1.928.013.634.697 1.302.247 1.9.114-.374-.235-1.053-.535-.455-.458.587.465 1.286.63 1.197-.155.001-.339.047-.481-.027zm4.091-.462c-.845-.114-1.57-.855-1.522-1.733.106-.702-.136-1.352-.406-1.982-.222-.376.607-.664.162-.271.57.46.233-.567.196-.854-.316-.418.495-1.214.542-.823-.206.576.773-.175.412-.563-.264-.293-.698.593-.478-.03.384-.736 1.436-.373 2.126-.388.416.052 1.465.226.983.79-.369-.604-.514.522-.118.669.264.51-.16 1.34-.738 1.362.856.047.316-1.508-.174-.759-.009.718-.218-.354.052-.546.269-.664-.88-.658-.628.043.142.63-1.004.205-.247.031-.47-.777-1.15.543-.719 1.037.42.186.58 1.335-.043 1.151.482-.626-.999-.506-.594.18-.034.595.468 1.45 1.15 1.132.164-.437 1.291-.226.682.135.103-.485-.49.282.107.113.721-.186.32-1.25-.369-.925-.485.157-1.796-.165-1.128-.785-.347.78.978.581 1.222.069.145-.598 1.269.158.493.039-.056.753 1.25.085 1.117.959-.182.303-.285-.252-.33.268.383.539.04 1.815-.78 1.376-.367-.276.627-.165.097-.473-.45-.277-1.523.348-.703.619.802-.144-.193.293-.364.159z" aria-label="PIWG" style="font-size:7.01852px;font-family:&quot;Dark Garden (©Michal Kosmulski)&quot;;-inkscape-font-specification:&quot;Dark Garden (©Michal Kosmulski)&quot;;fill:#ff2e18;stroke:#f7dcc2;stroke-width:.15875"/></svg>