<?xml version="1.0" encoding="UTF-8" standalone="no"?>
<!-- Created with Inkscape (http://www.inkscape.org/) -->

<svg
   width="48"
   height="48"
   viewBox="0 0 48 48"
   version="1.1"
   id="svg1"
   inkscape:version="1.3.2 (091e20ef0f, 2023-11-25, custom)"
   sodipodi:docname="PSW_logo_edo.svg"
   xmlns:inkscape="http://www.inkscape.org/namespaces/inkscape"
   xmlns:sodipodi="http://sodipodi.sourceforge.net/DTD/sodipodi-0.dtd"
   xmlns="http://www.w3.org/2000/svg"
   xmlns:svg="http://www.w3.org/2000/svg">
  <sodipodi:namedview
     id="namedview1"
     pagecolor="#ffffff"
     bordercolor="#000000"
     borderopacity="0.25"
     inkscape:showpageshadow="2"
     inkscape:pageopacity="0.0"
     inkscape:pagecheckerboard="0"
     inkscape:deskcolor="#d1d1d1"
     inkscape:document-units="px"
     inkscape:zoom="24.125"
     inkscape:cx="23.979275"
     inkscape:cy="24"
     inkscape:window-width="5120"
     inkscape:window-height="1371"
     inkscape:window-x="0"
     inkscape:window-y="0"
     inkscape:window-maximized="1"
     inkscape:current-layer="layer1" />
  <defs
     id="defs1" />
  <g
     inkscape:label="Layer 1"
     inkscape:groupmode="layer"
     id="layer1">
    <path
       d="m 6.3691406,15 0.1875,0.199219 v 0.199219 l 0.1992188,-0.199219 h 0.9960937 q 0.3984375,0 0.375,0.996093 h 0.1992188 q 0.023437,-0.597656 0.421875,-0.597656 0.3984375,0 0.375,0.597656 l 1.4062501,-0.199218 2.132812,0.398437 0.796875,-0.199219 q 1.523438,0 2.34375,1.59375 l -0.210937,1.394532 0.1875,0.199218 v 0.199219 l -0.433594,1.195313 h -0.199219 l 0.01172,-0.398438 h -0.199219 q -1.546875,3.75 -4.359375,5.179688 l -3.2343746,1.394531 -0.1054688,3.386719 0.1640625,0.996093 q -0.3984375,0 -1.0664062,1.992188 L 6.1582031,33.527344 H 5.9589844 L 4.3886719,32.730469 4.6464844,31.136719 4.0722656,30.339844 4.5644531,27.550781 4.3652344,27.351562 5.0917969,23.566406 4.8925781,23.367187 5.1035156,23.167969 h 0.3984375 l -0.023437,0.796875 H 5.6777344 L 5.7128906,22.96875 5.5371094,22.371094 H 5.9355469 L 5.9589844,21.375 5.5722656,20.976562 5.5488281,21.773437 H 5.3496094 q 0.046875,-1.265625 -1.125,-1.992187 l -0.1640625,-1.195313 0.035156,-0.796875 q 2.6132813,-1.066406 2.625,-1.394531 L 6.7324219,16.195312 6.3457031,15.796875 6.1464844,15.996094 5.9589844,15.199219 6.1699219,15 Z m 1.734375,7.769531 h 0.3984375 q 2.5664059,-1.078125 4.4999999,-3.585937 h -0.597656 q -3.9960939,0.269531 -4.0195314,1.195312 z m 5.0742184,-2.789062 q -0.632812,1.125 -5.0976559,3.386718 l -0.1992187,0.199219 v 0.199219 h 0.3984375 q 2.9414061,-0.902344 5.0976561,-3.785156 z m -8.0976559,4.183593 -0.011719,0.199219 0.1875,0.199219 -0.1992188,0.199219 -0.023437,0.398437 h 0.3984375 l 0.046875,-0.996094 z M 22.271484,15.515625 q 0.527344,0.398438 3.351563,0.398438 l -0.01172,0.199218 h -1.394531 l -0.01172,0.199219 q 2.496094,0 3.117188,1.195312 l -0.02344,0.398438 h -0.996094 l -0.01172,0.199219 1.382812,0.199218 -0.01172,0.199219 h -1.195312 l -0.01172,0.199219 q 0.597656,0 0.574219,0.398437 -3.550781,0 -6.339844,2.589844 l -0.01172,0.199219 q 3.855469,1.03125 6.105469,4.582031 l -0.01172,0.199219 Q 26.044922,29.25 22.705078,31.453125 l -1.21875,0.199219 -0.01172,0.199218 h 0.398438 q -0.02344,0.539063 -3.65625,1.195313 l 0.02344,-0.398438 h 0.996094 l 0.02344,-0.199218 q -1.277344,0 -2.308594,-1.394532 -0.890625,-0.457031 -0.890625,-1.746093 0,-0.117188 0.01172,-0.246094 l 0.621093,-0.398438 0.574219,0.398438 h 0.398438 q 5.625,-0.878906 5.800781,-3.585938 -2.355469,-1.195312 -3.117188,-1.195312 l -0.01172,0.199219 -1.957032,-0.796875 0.1875,0.199218 -0.01172,0.398438 q -2.484375,-1.828125 -2.425782,-2.789063 l 1.558594,-2.789062 1.042969,-0.796875 -0.02344,0.398437 z m -2.71875,5.378906 -0.01172,0.199219 3.515625,-2.191406 1.617187,-0.398438 0.02344,-0.398437 h -0.398438 q -3.152344,1.171875 -4.746094,2.789062 z m 1.101563,8.167969 h 0.199219 l 0.421875,-0.398438 h -0.199219 z m 3.585937,0 -0.855468,0.996094 h 0.199218 L 24.439453,29.0625 Z m -2.496093,1.59375 v 0.199219 h 0.199218 l 0.832032,-0.597657 z M 19.482422,32.050781 19.470703,32.25 h 0.796875 l 1.007813,-0.199219 V 31.851562 H 21.076172 Z M 28.845703,15.375 h 0.597656 l 0.199219,0.996094 q 0.597656,0 0.597656,-0.597656 h 0.199219 l 0.398438,0.398437 -0.199219,1.195312 h 0.199219 l -0.199219,0.199219 v 0.199219 l 0.199219,0.199219 v 0.199218 h -0.199219 l 0.199219,0.199219 V 18.5625 l -0.199219,6.574219 v 0.199218 h 0.199219 l 0.597656,-1.992187 h 0.398437 l -1.394531,3.785156 h 0.398438 l 2.390625,-6.773437 h -0.398438 l -0.796875,2.589843 h -0.398437 v -0.199218 l 1.394531,-3.1875 h 0.199219 v 0.398437 l 1.59375,-0.398437 q 0.796875,0.292968 0.796875,0.597656 l 0.199218,-0.199219 h 0.597657 l 0.796875,4.78125 h 0.199218 q 0,-0.890625 3.140625,-10.265625 h 0.199219 l 0.199219,0.597657 h 0.199219 v -0.398438 h 0.199218 q 1.476563,0 1.59375,0.597656 v 0.398438 l -0.398437,0.597656 v 0.199219 h 0.398437 l 0.199219,-1.394531 h 0.398438 l 0.398437,0.398437 v 0.199219 L 39.404297,31.3125 38.806641,31.511719 V 31.113281 L 38.607422,31.3125 h -0.199219 l -0.199219,-0.199219 q 0,0.796875 -0.597656,0.796875 -1.59375,-0.140625 -1.59375,-0.597656 h 0.199219 q -0.199219,-0.996094 -0.796875,-1.394531 l -0.796875,-4.382813 q -0.339844,0.01172 -2.390625,5.578125 l -0.996094,0.996094 H 31.037109 L 30.837891,31.3125 q 3.046875,-5.039063 3.1875,-7.769531 -0.527344,0.527343 -2.589844,5.976562 -0.246094,0 -0.796875,2.390625 H 28.845703 L 28.646484,31.113281 28.447266,31.3125 h -0.199219 q 0,-1.078125 -0.597656,-1.59375 v -0.796875 l 0.796875,0.597656 -0.398438,-3.386719 0.199219,-0.199218 -0.199219,-0.199219 0.199219,-0.199219 h -0.199219 l 0.199219,-0.199219 v -2.789062 l 0.199219,-0.996094 h -0.199219 l 0.199219,-0.199219 v -5.179687 l -0.199219,-0.199219 v -0.199218 z m 11.707031,0.09375 q -2.941406,9.152344 -2.941406,10.265625 v 0.199219 h 0.199219 L 40.951172,15.46875 Z m -0.351562,7.675781 -0.398438,1.792969 v 0.199219 h 0.199219 l 0.398438,-1.792969 v -0.199219 z m -1.195313,4.78125 -0.398437,1.792969 v 0.398437 h 0.199219 L 39.205078,28.125 v -0.199219 z"
       id="text1"
       style="font-size:24px;font-family:'Edo SZ';-inkscape-font-specification:'Edo SZ, Normal';stroke-width:1.75748"
       aria-label="PSW" />
  </g>
</svg>
