<svg xmlns="http://www.w3.org/2000/svg" xml:space="preserve" width="72" height="36" viewBox="0 0 19.05 9.525"><path d="M-5.324 31.158c3.226-4.404 6.504-8.807 8.766-13.75 1.453-.87 5.622-6.81 2.033-3.325C4.48 15.7-.122 20.148 3.092 16.13c.82-1.115 4.254-4.533 3.42-4.71-1.004 1.222-5.385 5.308-2.439 1.69 2.582-3.249 8.753-8.484 8.976-10.57-3.044 1.488.968-1.773-1.817-2.649-1.617-1.646-4.962-7.38-6.711-5.494.414 2.177.058 4.577-.537 1.1C3.208-8.148.677-8.748-.251-12.857c-.762-1.76-3.648-7.876-2.518-2.896-1.047 1.853-2.36-4.186-4.134-4.92-2.576-2.814-6.556-4.647-8.043-8.262 4.01 1.23-2.194-2.639-3.022-4.331-1.832-2.067-5.223-5.58-6.033-6.806 3.568 4.941 10.686 4.006 15.016 7.882C-3.69-28.896 1.93-25.684 5.516-20.41c3.625 3.993 7.386 7.872 11.096 11.777 3.16 1.788 1.642-1.196.383-2.065 3.673 3.503 7.435-.272 10.379-2.709 1.765-1.446 4.313-2.917.506-1.476-2.591.12 3.336-2.966 3.966-4.289 1.784-1.857 4.247-3.57 4.01-4.766 1.384-1.367 6.655-5.803 3.62-1.168-3.666 5.074-7.858 9.76-11.782 14.645-.955 1.599-6.038 5.414-1.518 2.686.932-1.057-2.1 5.619.716 2.538 4.928-6.589 9.52-13.426 14.336-20.09 2.166-3.276-2.62 1.176.005-1.554 3.294-3.865 7.646-6.827 10.244-11.271 1.452-.532-3.855 4.435-3.233 6.784-1.352 4.994-3.932 9.529-6.83 13.752-2.401 5.227-6.946 8.884-10.51 13.205-.394 2.223-4.766 4.168-2.61.735 2.896-4.611 6.431-8.897 8.932-13.702-1.796-.139-3.744 5.228-5.532 7.179-1.829 2.206-4.43 7.615-6.275 7.347-2.182-.459-3.65-1.964-4.478-3.014-4.835-1.067-7.59-5.772-11.71-8.193-4.357-3.417-8.07-7.861-13-10.422 1.512 2.26 4.836 4.1 6.933 6.317 5.241 4.512 10.792 8.638 16.13 13.025 2.364 2.05 9.787 5.768 8.931 6.931 1.175.868 6.272 3.585 2.105 2.269 2.936 2.786 10.678 5.594 11.078 7.525 1.347 1.197 9.002 4.53 3.474 2.63 3.384 4.099-3.943-1.527-5.737-.167.518 3.403 8.373 5.846 7.98 7.194-2.09-1.392-4.818-1.839-1.3.344 2.84 2.815-3.308-1.634-4.01-2.61-2.693-3.965-7.426-3.156-10.076-6.805-1.198-1.288-6.157-5.382-6.059-4.223 2.283 2.273 8.209 6.835 8.251 7.537-3.362-2.382-6.248-5.406-9.827-7.487.675 1.524 5.875 4.745 4.563 4.801-1.978-1.985-6.093-5.957-8.274-2.116 3.633-1.6-1.066-6.004-2.047-1.854-1.978 3.81-5.626 6.417-7.68 10.152.813-4.39-2.558 2.917-3.095 4.294-.77 2.364-4.598 5.954-5.012 6.49 2.155-3.445-.37-.362-1.694.328.508-1.632 4.56-6.417 1.333-6.866-2.595 2.55-4.863 5.435-7.522 7.93m12.073-7.247c2.021-4.396-2.561 3.624-.278.567.096-.187.184-.378.278-.567M13.46.673c-2.933-2.767-4.037-8.008-8.174-9.176.46 3.076 5.594 6.398 8.174 9.176m.53-1.534c-.655-2.359-3.529-1.888 0 0m5.499-.826c-2.721-.486-7.695-4.409-8.77-3.032 2.529 1.858 5.63 2.953 8.77 3.032M15.697-6.19c-4.126-3.696-9.032-6.55-12.53-10.91-5.372-4.403-10.588-9.075-16.403-12.865-2.42-.36 4.03 4.103 5.169 5.49 4.77 4.24 9.5 8.663 12.993 14.054-1.427-2.101-1.576-5.297 1.022-2.23 3.666 2.547 7.434 4.96 10.941 7.725l-.577-.65ZM-6.647 30.365c.843-1.863 4.837-4.27 1.56-1.26-.423.513-.863 1.11-1.56 1.26m11.112-1.823c.291-.594.291.593 0 0" style="display:inline;fill:#f2f1f1" transform="matrix(.10773 0 0 .10773 6.688 4.88)"/><path d="M64.043 12.678c-5.347 2.46 6.042 5.18 4.004 3.817-5.01-.195-10.083-.078-14.887-1.607-3.327.817-8.872.143-10.808 2.602 3.087 2.156 7.853 4.856 11.502 3.376 3.787-3.872 8.46 2.157 12.693 2.089 4.15-3.169 9.53.354 11.872 4.426.454 1.69.865 3.652 1.914.934 1.824-1.961 1.175 5.376 2.749 1.159 2.11-5.158-2.54-10.325-7.19-11.973-4.843-.634-6.283-6.101-11.849-4.823m-1.244.767c-.24 1.448-.975-.672 0 0m-24.994 2.713c-2.05 3.153-6.315-2.004-9.117.884-6.014 1.116-11.913 2.793-17.685 4.807-3.374 2.19-5.29 4.038-7.53 7.734-3.235.73 1.106-4.904-3.396-4.045-2.272.32-2.627 2.57-5.061 1.055-5.177.728-10.142 2.528-15.419 2.715-3.529 1.791-9.178 3.384-10.538 7.08 2.944 3.767 6.019-.55 8.554-1.89 2.393 1.204 4.22 5.086 7.422 2.114 3.62-5.137 9.587-.898 14.257-3.696 5.3-1.87 11.019-2.112 16.425-3.702 4.3-1.195 8.904-.816 13.1-2.548 2.256-1.29 8.263-1.716 6.582-4.862 2.227 3.401 11.143.758 6.654-2.972-1.384-.933-2.622-2.14-4.248-2.674" style="display:inline;fill:#ed4b24" transform="matrix(.10773 0 0 .10773 6.688 4.88)"/></svg>