<svg xmlns="http://www.w3.org/2000/svg" xml:space="preserve" width="72.002" height="36" viewBox="0 0 19.051 9.525"><path d="M85.48 45.503c.069-.103.068-.084.064-1.209l-.002-1.007-.023-.058a.5.5 0 0 0-.05-.092l-.026-.036.286-.002q.285-.004.313.008c.02.008.173.22.54.743l.54.773.03.04-.003-.698-.003-.699-.03-.064a.3.3 0 0 0-.043-.076c-.008-.006-.014-.016-.014-.02 0-.006.158-.01.355-.01h.355l-.03.044a.6.6 0 0 0-.049.095c-.019.05-.02.094-.02 1.102v1.05l.043.084.043.084-.228-.003-.228-.003-.059-.03c-.127-.064-.146-.09-.683-.878l-.502-.737-.003.123v.73c.003.597.004.608.026.667a.5.5 0 0 0 .05.095l.026.035h-.709ZM83.612 45.615a1.286 1.286 0 0 1-.124-2.539c.28-.057.62-.029.856.071.394.167.675.51.767.936.026.122.026.383 0 .504a1.3 1.3 0 0 1-.351.653c-.292.294-.688.424-1.148.375m.255-.21a.6.6 0 0 0 .125-.067c.272-.19.456-.48.513-.807a1.4 1.4 0 0 0-.021-.502c-.07-.27-.24-.524-.46-.686-.125-.093-.2-.117-.292-.091a1 1 0 0 0-.29.202 1.22 1.22 0 0 0 .019 1.766c.106.1.186.156.257.18.067.024.084.024.149.005" style="fill:#000;stroke-width:.0388643" transform="translate(-69.416 -41.121)"/><path d="M80.379 45.53a1 1 0 0 0 .045-.079l.028-.056.002-1.034c.002-.705 0-1.05-.008-1.086a.5.5 0 0 0-.046-.112l-.036-.063c0-.002.157-.004.35-.004s.35.003.35.006a.2.2 0 0 1-.027.044.5.5 0 0 0-.046.103c-.019.06-.02.096-.02.45v.384l.033-.006a.3.3 0 0 0 .175-.105c.03-.033.165-.203.3-.378.282-.362.308-.392.374-.435.082-.052.145-.063.385-.063.117 0 .214.004.214.008s-.033.05-.073.1l-.866 1.1-.018.025.479.61.48.61-.245.003-.244.002-.063-.029c-.09-.042-.11-.063-.274-.272-.5-.638-.474-.607-.545-.645a.3.3 0 0 0-.075-.026l-.038-.007.003.406.002.406.043.084.043.083h-.7ZM77.983 45.501c.064-.097.062-.06.062-1.181 0-.96 0-1.026-.018-1.076a.5.5 0 0 0-.05-.095.3.3 0 0 1-.03-.047c0-.003.296-.005.656-.005.754 0 .763 0 .915.076.162.08.277.214.338.391a.5.5 0 0 1 .028.185c0 .298-.166.54-.44.639a.8.8 0 0 1-.265.04q-.022-.01-.012.007c.01.018.355.458.645.824l.234.296-.255-.003-.255-.003-.059-.03c-.078-.038-.13-.091-.284-.29l-.268-.343c-.194-.25-.233-.285-.333-.304l-.039-.008.004.4c.003.39.003.401.027.456a.5.5 0 0 0 .05.09l.025.034h-.71zm1.127-1.354a.4.4 0 0 0 .196-.158.35.35 0 0 0 .065-.224.396.396 0 0 0-.4-.406.4.4 0 0 0-.329.16c-.073.092-.08.128-.085.408l-.005.25.25-.003c.23-.004.255-.006.307-.027zM76.195 45.519c.058-.077.07-.128.074-.338a1.6 1.6 0 0 0-.044-.485 4 4 0 0 0-.139-.33l-.472-1.015c-.06-.125-.094-.17-.165-.226l-.036-.028h.296c.227 0 .304.003.33.013.03.013.042.033.112.183l.373.8c.003.002.008-.008.014-.021.005-.013.033-.075.062-.136l.052-.114a38.959 38.959 0 0 0 .21-.453c.055-.119.111-.228.125-.242l.025-.026.31-.003.31-.003-.066.061c-.076.07-.061.043-.297.552l-.206.442-.151.324c-.103.219-.124.31-.133.586-.009.269.01.379.08.466l.02.028h-.711z" style="fill:#000;stroke-width:.0388643" transform="translate(-69.416 -41.121)"/><path d="M72.768 49.047c-.102-.041-.2-.163-.2-.249q0-.032-.015-.034c-.026 0-.182-.085-.278-.152a1.2 1.2 0 0 1-.31-.31 1.7 1.7 0 0 0-.316-.339 1.7 1.7 0 0 0-.347-.187q-.017 0-.017.047a.34.34 0 0 1-.103.21.4.4 0 0 1-.2.077.4.4 0 0 1-.2-.08c-.038-.034-.06-.044-.098-.044a.53.53 0 0 1-.298-.115 1 1 0 0 1-.102-.121.36.36 0 0 0-.121-.117l-.05-.021.047-.021a.44.44 0 0 0 .162-.164.5.5 0 0 1 .097-.102.56.56 0 0 1 .257-.092c.033 0 .05-.01.08-.043a.303.303 0 0 1 .5.073c.016.035.03.074.03.088 0 .046.022-.01.061-.157.082-.308.108-.538.119-1.028.013-.58-.032-.964-.164-1.4-.029-.097-.054-.15-.054-.114 0 .025-.076.102-.126.127-.106.054-.22.043-.331-.032a.3.3 0 0 0-.15-.056c-.157-.022-.248-.081-.368-.24a.4.4 0 0 0-.108-.1l-.052-.027.056-.028c.042-.02.075-.052.13-.126.106-.145.2-.204.363-.226a.17.17 0 0 0 .111-.055.3.3 0 0 1 .22-.088c.13 0 .249.091.283.22l.014.053.069-.038c.162-.091.29-.217.455-.446.22-.308.48-.526.81-.683a2.1 2.1 0 0 1 1.996.117c.472.287.853.852.948 1.407.046.27.028.648-.044.95a1.97 1.97 0 0 1-1.29 1.375c-.302.1-.463.124-.799.117-.234-.006-.268-.01-.398-.043a2.2 2.2 0 0 1-.746-.343.4.4 0 0 0-.103-.061 4 4 0 0 0-.008.355c0 .479.042.76.167 1.135.055.163.183.469.207.493.005.005.011-.021.012-.059a.37.37 0 0 1 .08-.214.4.4 0 0 1 .089-.059c.125-.059.293-.024.374.077.027.034.042.042.078.042.025 0 .08.011.125.025.095.029.169.09.251.205a.4.4 0 0 0 .117.114l.06.034-.05.022a.3.3 0 0 0-.1.092.6.6 0 0 1-.207.199.6.6 0 0 1-.23.062.14.14 0 0 0-.07.032.3.3 0 0 1-.212.078.4.4 0 0 1-.103-.012zm.775-2.494c.087-.04.187-.119.326-.255.139-.135.215-.226.307-.366a2.1 2.1 0 0 0 .298-1.549 2.2 2.2 0 0 0-.323-.753 2.4 2.4 0 0 0-.513-.528c-.268-.177-.493-.126-.82.187-.396.38-.616.87-.64 1.427-.019.413.083.813.294 1.157.191.313.528.63.744.702.08.027.246.016.327-.022" style="fill:#000;stroke-width:.0466373" transform="translate(-69.416 -41.121)"/></svg>