<svg xmlns="http://www.w3.org/2000/svg" xml:space="preserve" width="72.002" height="36" viewBox="0 0 19.051 9.525"><path d="M85.034 46.349c.072-.109.071-.089.068-1.276l-.003-1.064-.024-.06a.6.6 0 0 0-.052-.098l-.028-.037.302-.003q.301-.002.33.01c.021.01.184.232.57.785l.571.815.03.043-.002-.738-.002-.737-.031-.068a.4.4 0 0 0-.047-.08q-.014-.013-.015-.022c0-.006.168-.01.376-.01h.375l-.032.046a.6.6 0 0 0-.052.1c-.02.053-.02.1-.02 1.164v1.109l.044.088.046.089-.24-.003-.242-.003-.062-.032c-.134-.068-.155-.094-.721-.926l-.53-.779-.003.13v.771c.003.63.004.642.027.704a.5.5 0 0 0 .053.1l.028.037h-.749zM83.061 46.467a1.358 1.358 0 0 1-.13-2.68c.295-.06.655-.03.903.075.416.176.713.539.81.988.027.129.027.404 0 .532q-.087.404-.37.69c-.308.31-.727.447-1.213.395m.27-.221c.03-.01.09-.041.132-.072.287-.2.48-.507.54-.851a1.5 1.5 0 0 0-.02-.53 1.35 1.35 0 0 0-.486-.725c-.133-.098-.211-.122-.309-.096-.065.018-.208.118-.305.214a1.29 1.29 0 0 0 .019 1.864.8.8 0 0 0 .272.191c.07.025.088.025.157.004z" style="fill:#000;stroke-width:.0410307" transform="translate(-69.416 -41.121)"/><path d="M79.648 46.378a1 1 0 0 0 .047-.084l.03-.06.002-1.09c.002-.745 0-1.109-.009-1.147a.5.5 0 0 0-.05-.118l-.036-.067c0-.002.166-.003.369-.003s.369.002.369.007a.3.3 0 0 1-.028.046.5.5 0 0 0-.049.109c-.02.064-.021.101-.021.475v.405l.035-.007a.33.33 0 0 0 .184-.111c.032-.034.175-.214.318-.398.297-.382.325-.415.395-.46.086-.055.153-.066.406-.066.124 0 .225.003.225.009a1 1 0 0 1-.077.106l-.914 1.161-.02.026.507.644.506.644-.258.003-.258.002-.066-.03c-.094-.045-.117-.067-.29-.288-.527-.674-.5-.641-.574-.68a.3.3 0 0 0-.08-.028l-.04-.009.002.43.003.428.045.088.045.088h-.739zM77.12 46.347c.067-.102.065-.063.065-1.247 0-1.013-.001-1.084-.02-1.136a.5.5 0 0 0-.052-.1.3.3 0 0 1-.031-.05c0-.003.311-.006.692-.006.795 0 .805 0 .966.08a.7.7 0 0 1 .356.413c.025.072.03.106.03.196 0 .314-.176.569-.464.674a.8.8 0 0 1-.28.041q-.024-.008-.013.009c.011.02.374.484.68.87l.248.313-.27-.003-.268-.003-.063-.03c-.082-.041-.138-.098-.3-.307l-.282-.363c-.206-.264-.246-.301-.352-.321l-.041-.008.003.422c.003.412.003.423.029.481a.5.5 0 0 0 .052.095l.026.035h-.748Zm1.188-1.43a.44.44 0 0 0 .207-.167.37.37 0 0 0 .07-.236.42.42 0 0 0-.423-.428.42.42 0 0 0-.347.168c-.078.097-.086.135-.09.432l-.005.264.265-.004c.243-.003.269-.007.324-.028zM75.23 46.365c.063-.08.075-.134.08-.355.006-.23-.01-.381-.047-.512a4 4 0 0 0-.147-.349l-.498-1.072c-.064-.132-.099-.18-.174-.239l-.038-.03h.312c.24 0 .32.003.348.015.032.013.045.034.118.193l.394.844c.003.002.01-.008.015-.022l.065-.143.056-.121.058-.127c.033-.068.106-.226.164-.351.058-.126.117-.24.132-.255l.026-.027.328-.003.327-.003-.07.064c-.08.075-.065.046-.314.583l-.068.146-.149.32-.16.343c-.109.23-.13.327-.14.619-.01.283.011.399.083.492l.023.029h-.752z" style="fill:#000;stroke-width:.0410307" transform="translate(-69.416 -41.121)"/><path d="M72.422 48.256c-.077-.03-.15-.122-.15-.186q-.001-.024-.011-.026a1 1 0 0 1-.209-.114.9.9 0 0 1-.233-.232 1.3 1.3 0 0 0-.236-.255 1.3 1.3 0 0 0-.261-.14q-.012 0-.012.035a.25.25 0 0 1-.077.157.3.3 0 0 1-.15.058.3.3 0 0 1-.15-.06c-.03-.025-.046-.032-.074-.032a.4.4 0 0 1-.224-.087 1 1 0 0 1-.076-.09.3.3 0 0 0-.091-.088l-.037-.016.034-.016a.33.33 0 0 0 .122-.123.4.4 0 0 1 .073-.076.4.4 0 0 1 .193-.069c.024 0 .038-.007.06-.033a.227.227 0 0 1 .375.055.3.3 0 0 1 .022.066c0 .035.017-.008.046-.118.061-.23.081-.403.09-.77.009-.435-.025-.723-.124-1.05-.022-.074-.04-.113-.04-.086 0 .019-.057.076-.095.095q-.12.06-.248-.024a.24.24 0 0 0-.113-.042c-.118-.016-.186-.061-.275-.18a.3.3 0 0 0-.081-.075l-.04-.02.043-.02c.031-.016.055-.04.096-.096.08-.108.152-.153.273-.169a.13.13 0 0 0 .084-.042.22.22 0 0 1 .164-.066c.098 0 .187.07.213.165l.01.04.052-.028c.121-.068.218-.163.341-.335.166-.23.36-.394.608-.512a1.57 1.57 0 0 1 1.497.088c.353.215.64.639.71 1.055.035.202.022.486-.033.712a1.47 1.47 0 0 1-.967 1.032 1.5 1.5 0 0 1-.599.087 1 1 0 0 1-.298-.032 1.6 1.6 0 0 1-.56-.257.3.3 0 0 0-.077-.046 3 3 0 0 0-.006.266c0 .36.031.57.125.852.04.122.137.351.155.37.004.004.008-.016.009-.045a.28.28 0 0 1 .06-.16.3.3 0 0 1 .066-.044c.094-.044.22-.019.28.058.021.025.032.03.06.03a.4.4 0 0 1 .093.02c.071.021.127.067.189.154a.3.3 0 0 0 .087.085l.045.025-.037.017a.2.2 0 0 0-.075.069.43.43 0 0 1-.156.149.5.5 0 0 1-.172.046.1.1 0 0 0-.053.025.23.23 0 0 1-.159.058.3.3 0 0 1-.077-.01zm.581-1.87c.065-.03.14-.09.245-.191s.16-.17.23-.275c.22-.334.303-.766.223-1.162a1.6 1.6 0 0 0-.242-.564 1.8 1.8 0 0 0-.385-.396c-.2-.133-.37-.095-.614.14a1.54 1.54 0 0 0-.48 1.07c-.015.31.062.61.22.868.143.234.396.473.558.526.06.02.184.012.245-.016" style="fill:#000;stroke-width:.0349774" transform="translate(-69.416 -41.121)"/></svg>