<svg xmlns="http://www.w3.org/2000/svg" xmlns:ns1="http://www.w3.org/1999/xlink" width="900" height="600" viewBox="0 0 900 600">

<title>Gnuplot</title>
<desc>Produced by GNUPLOT 6.0 patchlevel 1 </desc>

<g id="gnuplot_canvas">

<rect x="0" y="0" width="900" height="600" fill="#ffffff" />
<defs>

	<circle id="gpDot" r="0.5" stroke-width="0.5" stroke="currentColor" />
	<path id="gpPt0" stroke-width="0.222" stroke="currentColor" d="M-1,0 h2 M0,-1 v2" />
	<path id="gpPt1" stroke-width="0.222" stroke="currentColor" d="M-1,-1 L1,1 M1,-1 L-1,1" />
	<path id="gpPt2" stroke-width="0.222" stroke="currentColor" d="M-1,0 L1,0 M0,-1 L0,1 M-1,-1 L1,1 M-1,1 L1,-1" />
	<rect id="gpPt3" stroke-width="0.222" stroke="currentColor" x="-1" y="-1" width="2" height="2" />
	<rect id="gpPt4" stroke-width="0.222" stroke="currentColor" fill="currentColor" x="-1" y="-1" width="2" height="2" />
	<circle id="gpPt5" stroke-width="0.222" stroke="currentColor" cx="0" cy="0" r="1" />
	<use ns1:href="#gpPt5" id="gpPt6" fill="currentColor" stroke="none" />
	<path id="gpPt7" stroke-width="0.222" stroke="currentColor" d="M0,-1.33 L-1.33,0.67 L1.33,0.67 z" />
	<use ns1:href="#gpPt7" id="gpPt8" fill="currentColor" stroke="none" />
	<use ns1:href="#gpPt7" id="gpPt9" stroke="currentColor" transform="rotate(180)" />
	<use ns1:href="#gpPt9" id="gpPt10" fill="currentColor" stroke="none" />
	<use ns1:href="#gpPt3" id="gpPt11" stroke="currentColor" transform="rotate(45)" />
	<use ns1:href="#gpPt11" id="gpPt12" fill="currentColor" stroke="none" />
	<path id="gpPt13" stroke-width="0.222" stroke="currentColor" d="M0,1.330 L1.265,0.411 L0.782,-1.067 L-0.782,-1.076 L-1.265,0.411 z" />
	<use ns1:href="#gpPt13" id="gpPt14" fill="currentColor" stroke="none" />
	<filter id="textbox" filterUnits="objectBoundingBox" x="0" y="0" height="1" width="1">
	  <feFlood flood-color="#FFFFFF" flood-opacity="1" result="bgnd" />
	  <feComposite in="SourceGraphic" in2="bgnd" operator="atop" />
	</filter>
	<filter id="greybox" filterUnits="objectBoundingBox" x="0" y="0" height="1" width="1">
	  <feFlood flood-color="lightgrey" flood-opacity="1" result="grey" />
	  <feComposite in="SourceGraphic" in2="grey" operator="atop" />
	</filter>
</defs>
<g fill="none" color="#FFFFFF" stroke="currentColor" stroke-width="1.00" stroke-linecap="butt" stroke-linejoin="miter">
</g>
<g fill="none" color="black" stroke="currentColor" stroke-width="1.00" stroke-linecap="butt" stroke-linejoin="miter">
	<path stroke="black" d="M314.62,550.45 L323.62,550.45  " />	<g transform="translate(306.23,554.35)" stroke="none" fill="black" font-family="Arial" font-size="12.00" text-anchor="end">
		<text><tspan font-family="Arial">PBWF</tspan></text>
	</g>
</g>
<g fill="none" color="black" stroke="currentColor" stroke-width="1.00" stroke-linecap="butt" stroke-linejoin="miter">
	<path stroke="black" d="M314.62,531.09 L323.62,531.09  " />	<g transform="translate(306.23,534.99)" stroke="none" fill="black" font-family="Arial" font-size="12.00" text-anchor="end">
		<text><a href="/o/dfw" target="_top"><tspan font-family="Arial" text-decoration="underline">Dream Factory Wrestling</tspan></a></text></g>
</g>
<g fill="none" color="black" stroke="currentColor" stroke-width="1.00" stroke-linecap="butt" stroke-linejoin="miter">
	<path stroke="black" d="M314.62,511.72 L323.62,511.72  " />	<g transform="translate(306.23,515.62)" stroke="none" fill="black" font-family="Arial" font-size="12.00" text-anchor="end">
		<text><tspan font-family="Arial">Slavic Wrestling Federation</tspan></text>
	</g>
</g>
<g fill="none" color="black" stroke="currentColor" stroke-width="1.00" stroke-linecap="butt" stroke-linejoin="miter">
	<path stroke="black" d="M314.62,492.36 L323.62,492.36  " />	<g transform="translate(306.23,496.26)" stroke="none" fill="black" font-family="Arial" font-size="12.00" text-anchor="end">
		<text><a href="/o/mcw" target="_top"><tspan font-family="Arial" text-decoration="underline">Mine City Wrestling</tspan></a></text></g>
</g>
<g fill="none" color="black" stroke="currentColor" stroke-width="1.00" stroke-linecap="butt" stroke-linejoin="miter">
	<path stroke="black" d="M314.62,473.00 L323.62,473.00  " />	<g transform="translate(306.23,476.90)" stroke="none" fill="black" font-family="Arial" font-size="12.00" text-anchor="end">
		<text><tspan font-family="Arial">North Polish Wrestlers Organization</tspan></text>
	</g>
</g>
<g fill="none" color="black" stroke="currentColor" stroke-width="1.00" stroke-linecap="butt" stroke-linejoin="miter">
	<path stroke="black" d="M314.62,453.64 L323.62,453.64  " />	<g transform="translate(306.23,457.54)" stroke="none" fill="black" font-family="Arial" font-size="12.00" text-anchor="end">
		<text><tspan font-family="Arial">Polish Wrestling Federation</tspan></text>
	</g>
</g>
<g fill="none" color="black" stroke="currentColor" stroke-width="1.00" stroke-linecap="butt" stroke-linejoin="miter">
	<path stroke="black" d="M314.62,434.28 L323.62,434.28  " />	<g transform="translate(306.23,438.18)" stroke="none" fill="black" font-family="Arial" font-size="12.00" text-anchor="end">
		<text><tspan font-family="Arial">Toruń Wrestling Federation</tspan></text>
	</g>
</g>
<g fill="none" color="black" stroke="currentColor" stroke-width="1.00" stroke-linecap="butt" stroke-linejoin="miter">
	<path stroke="black" d="M314.62,414.92 L323.62,414.92  " />	<g transform="translate(306.23,418.82)" stroke="none" fill="black" font-family="Arial" font-size="12.00" text-anchor="end">
		<text><tspan font-family="Arial">Dolnośląska Scena Wrestlingu</tspan></text>
	</g>
</g>
<g fill="none" color="black" stroke="currentColor" stroke-width="1.00" stroke-linecap="butt" stroke-linejoin="miter">
	<path stroke="black" d="M314.62,395.56 L323.62,395.56  " />	<g transform="translate(306.23,399.46)" stroke="none" fill="black" font-family="Arial" font-size="12.00" text-anchor="end">
		<text><tspan font-family="Arial">Polish Xtreme Wrestling</tspan></text>
	</g>
</g>
<g fill="none" color="black" stroke="currentColor" stroke-width="1.00" stroke-linecap="butt" stroke-linejoin="miter">
	<path stroke="black" d="M314.62,376.19 L323.62,376.19  " />	<g transform="translate(306.23,380.09)" stroke="none" fill="black" font-family="Arial" font-size="12.00" text-anchor="end">
		<text><tspan font-family="Arial">PWE</tspan></text>
	</g>
</g>
<g fill="none" color="black" stroke="currentColor" stroke-width="1.00" stroke-linecap="butt" stroke-linejoin="miter">
	<path stroke="black" d="M314.62,356.83 L323.62,356.83  " />	<g transform="translate(306.23,360.73)" stroke="none" fill="black" font-family="Arial" font-size="12.00" text-anchor="end">
		<text><tspan font-family="Arial">Halemba Power Wrestling</tspan></text>
	</g>
</g>
<g fill="none" color="black" stroke="currentColor" stroke-width="1.00" stroke-linecap="butt" stroke-linejoin="miter">
	<path stroke="black" d="M314.62,337.47 L323.62,337.47  " />	<g transform="translate(306.23,341.37)" stroke="none" fill="black" font-family="Arial" font-size="12.00" text-anchor="end">
		<text><tspan font-family="Arial">Line of Pro</tspan></text>
	</g>
</g>
<g fill="none" color="black" stroke="currentColor" stroke-width="1.00" stroke-linecap="butt" stroke-linejoin="miter">
	<path stroke="black" d="M314.62,318.11 L323.62,318.11  " />	<g transform="translate(306.23,322.01)" stroke="none" fill="black" font-family="Arial" font-size="12.00" text-anchor="end">
		<text><tspan font-family="Arial">Wrestlingowy Klub Sportowy Wołów</tspan></text>
	</g>
</g>
<g fill="none" color="black" stroke="currentColor" stroke-width="1.00" stroke-linecap="butt" stroke-linejoin="miter">
	<path stroke="black" d="M314.62,298.75 L323.62,298.75  " />	<g transform="translate(306.23,302.65)" stroke="none" fill="black" font-family="Arial" font-size="12.00" text-anchor="end">
		<text><tspan font-family="Arial">Backyard Wrestling Action</tspan></text>
	</g>
</g>
<g fill="none" color="black" stroke="currentColor" stroke-width="1.00" stroke-linecap="butt" stroke-linejoin="miter">
	<path stroke="black" d="M314.62,279.39 L323.62,279.39  " />	<g transform="translate(306.23,283.29)" stroke="none" fill="black" font-family="Arial" font-size="12.00" text-anchor="end">
		<text><tspan font-family="Arial">Honor of Wrestling</tspan></text>
	</g>
</g>
<g fill="none" color="black" stroke="currentColor" stroke-width="1.00" stroke-linecap="butt" stroke-linejoin="miter">
	<path stroke="black" d="M314.62,260.03 L323.62,260.03  " />	<g transform="translate(306.23,263.93)" stroke="none" fill="black" font-family="Arial" font-size="12.00" text-anchor="end">
		<text><tspan font-family="Arial">Łazieniec Superstar Wrestling</tspan></text>
	</g>
</g>
<g fill="none" color="black" stroke="currentColor" stroke-width="1.00" stroke-linecap="butt" stroke-linejoin="miter">
	<path stroke="black" d="M314.62,240.67 L323.62,240.67  " />	<g transform="translate(306.23,244.57)" stroke="none" fill="black" font-family="Arial" font-size="12.00" text-anchor="end">
		<text><tspan font-family="Arial">Wrocławska Scena Wrestlingu</tspan></text>
	</g>
</g>
<g fill="none" color="black" stroke="currentColor" stroke-width="1.00" stroke-linecap="butt" stroke-linejoin="miter">
	<path stroke="black" d="M314.62,221.30 L323.62,221.30  " />	<g transform="translate(306.23,225.20)" stroke="none" fill="black" font-family="Arial" font-size="12.00" text-anchor="end">
		<text><tspan font-family="Arial">Wrestling Total Federation</tspan></text>
	</g>
</g>
<g fill="none" color="black" stroke="currentColor" stroke-width="1.00" stroke-linecap="butt" stroke-linejoin="miter">
	<path stroke="black" d="M314.62,201.94 L323.62,201.94  " />	<g transform="translate(306.23,205.84)" stroke="none" fill="black" font-family="Arial" font-size="12.00" text-anchor="end">
		<text><tspan font-family="Arial">Polish Wrestling Underground</tspan></text>
	</g>
</g>
<g fill="none" color="black" stroke="currentColor" stroke-width="1.00" stroke-linecap="butt" stroke-linejoin="miter">
	<path stroke="black" d="M314.62,182.58 L323.62,182.58  " />	<g transform="translate(306.23,186.48)" stroke="none" fill="black" font-family="Arial" font-size="12.00" text-anchor="end">
		<text><tspan font-family="Arial">Pomerania Indy Wrestilng Group</tspan></text>
	</g>
</g>
<g fill="none" color="black" stroke="currentColor" stroke-width="1.00" stroke-linecap="butt" stroke-linejoin="miter">
	<path stroke="black" d="M314.62,163.22 L323.62,163.22  " />	<g transform="translate(306.23,167.12)" stroke="none" fill="black" font-family="Arial" font-size="12.00" text-anchor="end">
		<text><a href="/o/ptw" target="_top"><tspan font-family="Arial" text-decoration="underline">Prime Time Wrestling</tspan></a></text></g>
</g>
<g fill="none" color="black" stroke="currentColor" stroke-width="1.00" stroke-linecap="butt" stroke-linejoin="miter">
	<path stroke="black" d="M314.62,143.86 L323.62,143.86  " />	<g transform="translate(306.23,147.76)" stroke="none" fill="black" font-family="Arial" font-size="12.00" text-anchor="end">
		<text><a href="/o/kpw" target="_top"><tspan font-family="Arial" text-decoration="underline">Kombat Pro Wrestling</tspan></a></text></g>
</g>
<g fill="none" color="black" stroke="currentColor" stroke-width="1.00" stroke-linecap="butt" stroke-linejoin="miter">
	<path stroke="black" d="M314.62,124.50 L323.62,124.50  " />	<g transform="translate(306.23,128.40)" stroke="none" fill="black" font-family="Arial" font-size="12.00" text-anchor="end">
		<text><a href="/o/mzw" target="_top"><tspan font-family="Arial" text-decoration="underline">Maniac Zone Wrestling</tspan></a></text></g>
</g>
<g fill="none" color="black" stroke="currentColor" stroke-width="1.00" stroke-linecap="butt" stroke-linejoin="miter">
	<path stroke="black" d="M314.62,105.14 L323.62,105.14  " />	<g transform="translate(306.23,109.04)" stroke="none" fill="black" font-family="Arial" font-size="12.00" text-anchor="end">
		<text><a href="/o/ppw" target="_top"><tspan font-family="Arial" text-decoration="underline">PpW Ewenement</tspan></a></text></g>
</g>
<g fill="none" color="black" stroke="currentColor" stroke-width="1.00" stroke-linecap="butt" stroke-linejoin="miter">
	<path stroke="black" d="M314.62,85.77 L323.62,85.77  " />	<g transform="translate(306.23,89.67)" stroke="none" fill="black" font-family="Arial" font-size="12.00" text-anchor="end">
		<text><a href="/o/tbw" target="_top"><tspan font-family="Arial" text-decoration="underline">Total Blast Wrestling</tspan></a></text></g>
</g>
<g fill="none" color="black" stroke="currentColor" stroke-width="1.00" stroke-linecap="butt" stroke-linejoin="miter">
	<path stroke="black" d="M314.62,66.41 L323.62,66.41  " />	<g transform="translate(306.23,70.31)" stroke="none" fill="black" font-family="Arial" font-size="12.00" text-anchor="end">
		<text><a href="/o/ddw" target="_top"><tspan font-family="Arial" text-decoration="underline">Do Or Die Wrestling</tspan></a></text></g>
</g>
<g fill="none" color="black" stroke="currentColor" stroke-width="1.00" stroke-linecap="butt" stroke-linejoin="miter">
	<path stroke="black" d="M314.62,47.05 L323.62,47.05  " />	<g transform="translate(306.23,50.95)" stroke="none" fill="black" font-family="Arial" font-size="12.00" text-anchor="end">
		<text><tspan font-family="Arial">Polish Pro-Wrestling Federation</tspan></text>
	</g>
</g>
<g fill="none" color="black" stroke="currentColor" stroke-width="1.00" stroke-linecap="butt" stroke-linejoin="miter">
	<path stroke="black" d="M314.62,27.69 L323.62,27.69  " />	<g transform="translate(306.23,31.59)" stroke="none" fill="black" font-family="Arial" font-size="12.00" text-anchor="end">
		<text><tspan font-family="Arial">SuprońStars</tspan></text>
	</g>
</g>
<g fill="none" color="black" stroke="currentColor" stroke-width="1.00" stroke-linecap="butt" stroke-linejoin="miter">
	<path stroke="black" d="M314.62,564.00 L314.62,555.00  " />	<g transform="translate(314.62,585.90)" stroke="none" fill="black" font-family="Arial" font-size="12.00" text-anchor="middle">
		<text><tspan font-family="Arial">1990</tspan></text>
	</g>
</g>
<g fill="none" color="black" stroke="currentColor" stroke-width="1.00" stroke-linecap="butt" stroke-linejoin="miter">
	<path stroke="black" d="M346.69,564.00 L346.69,555.00  " />	<g transform="translate(346.69,585.90)" stroke="none" fill="black" font-family="Arial" font-size="12.00" text-anchor="middle">
		<text><tspan font-family="Arial">1992</tspan></text>
	</g>
</g>
<g fill="none" color="black" stroke="currentColor" stroke-width="1.00" stroke-linecap="butt" stroke-linejoin="miter">
	<path stroke="black" d="M378.80,564.00 L378.80,555.00  " />	<g transform="translate(378.80,585.90)" stroke="none" fill="black" font-family="Arial" font-size="12.00" text-anchor="middle">
		<text><tspan font-family="Arial">1994</tspan></text>
	</g>
</g>
<g fill="none" color="black" stroke="currentColor" stroke-width="1.00" stroke-linecap="butt" stroke-linejoin="miter">
	<path stroke="black" d="M410.86,564.00 L410.86,555.00  " />	<g transform="translate(410.86,585.90)" stroke="none" fill="black" font-family="Arial" font-size="12.00" text-anchor="middle">
		<text><tspan font-family="Arial">1996</tspan></text>
	</g>
</g>
<g fill="none" color="black" stroke="currentColor" stroke-width="1.00" stroke-linecap="butt" stroke-linejoin="miter">
	<path stroke="black" d="M442.97,564.00 L442.97,555.00  " />	<g transform="translate(442.97,585.90)" stroke="none" fill="black" font-family="Arial" font-size="12.00" text-anchor="middle">
		<text><tspan font-family="Arial">1998</tspan></text>
	</g>
</g>
<g fill="none" color="black" stroke="currentColor" stroke-width="1.00" stroke-linecap="butt" stroke-linejoin="miter">
	<path stroke="black" d="M475.04,564.00 L475.04,555.00  " />	<g transform="translate(475.04,585.90)" stroke="none" fill="black" font-family="Arial" font-size="12.00" text-anchor="middle">
		<text><tspan font-family="Arial">2000</tspan></text>
	</g>
</g>
<g fill="none" color="black" stroke="currentColor" stroke-width="1.00" stroke-linecap="butt" stroke-linejoin="miter">
	<path stroke="black" d="M507.15,564.00 L507.15,555.00  " />	<g transform="translate(507.15,585.90)" stroke="none" fill="black" font-family="Arial" font-size="12.00" text-anchor="middle">
		<text><tspan font-family="Arial">2002</tspan></text>
	</g>
</g>
<g fill="none" color="black" stroke="currentColor" stroke-width="1.00" stroke-linecap="butt" stroke-linejoin="miter">
	<path stroke="black" d="M539.22,564.00 L539.22,555.00  " />	<g transform="translate(539.22,585.90)" stroke="none" fill="black" font-family="Arial" font-size="12.00" text-anchor="middle">
		<text><tspan font-family="Arial">2004</tspan></text>
	</g>
</g>
<g fill="none" color="black" stroke="currentColor" stroke-width="1.00" stroke-linecap="butt" stroke-linejoin="miter">
	<path stroke="black" d="M571.33,564.00 L571.33,555.00  " />	<g transform="translate(571.33,585.90)" stroke="none" fill="black" font-family="Arial" font-size="12.00" text-anchor="middle">
		<text><tspan font-family="Arial">2006</tspan></text>
	</g>
</g>
<g fill="none" color="black" stroke="currentColor" stroke-width="1.00" stroke-linecap="butt" stroke-linejoin="miter">
	<path stroke="black" d="M603.40,564.00 L603.40,555.00  " />	<g transform="translate(603.40,585.90)" stroke="none" fill="black" font-family="Arial" font-size="12.00" text-anchor="middle">
		<text><tspan font-family="Arial">2008</tspan></text>
	</g>
</g>
<g fill="none" color="black" stroke="currentColor" stroke-width="1.00" stroke-linecap="butt" stroke-linejoin="miter">
	<path stroke="black" d="M635.51,564.00 L635.51,555.00  " />	<g transform="translate(635.51,585.90)" stroke="none" fill="black" font-family="Arial" font-size="12.00" text-anchor="middle">
		<text><tspan font-family="Arial">2010</tspan></text>
	</g>
</g>
<g fill="none" color="black" stroke="currentColor" stroke-width="1.00" stroke-linecap="butt" stroke-linejoin="miter">
	<path stroke="black" d="M667.57,564.00 L667.57,555.00  " />	<g transform="translate(667.57,585.90)" stroke="none" fill="black" font-family="Arial" font-size="12.00" text-anchor="middle">
		<text><tspan font-family="Arial">2012</tspan></text>
	</g>
</g>
<g fill="none" color="black" stroke="currentColor" stroke-width="1.00" stroke-linecap="butt" stroke-linejoin="miter">
	<path stroke="black" d="M699.68,564.00 L699.68,555.00  " />	<g transform="translate(699.68,585.90)" stroke="none" fill="black" font-family="Arial" font-size="12.00" text-anchor="middle">
		<text><tspan font-family="Arial">2014</tspan></text>
	</g>
</g>
<g fill="none" color="black" stroke="currentColor" stroke-width="1.00" stroke-linecap="butt" stroke-linejoin="miter">
	<path stroke="black" d="M731.75,564.00 L731.75,555.00  " />	<g transform="translate(731.75,585.90)" stroke="none" fill="black" font-family="Arial" font-size="12.00" text-anchor="middle">
		<text><tspan font-family="Arial">2016</tspan></text>
	</g>
</g>
<g fill="none" color="black" stroke="currentColor" stroke-width="1.00" stroke-linecap="butt" stroke-linejoin="miter">
	<path stroke="black" d="M763.86,564.00 L763.86,555.00  " />	<g transform="translate(763.86,585.90)" stroke="none" fill="black" font-family="Arial" font-size="12.00" text-anchor="middle">
		<text><tspan font-family="Arial">2018</tspan></text>
	</g>
</g>
<g fill="none" color="black" stroke="currentColor" stroke-width="1.00" stroke-linecap="butt" stroke-linejoin="miter">
	<path stroke="black" d="M795.93,564.00 L795.93,555.00  " />	<g transform="translate(795.93,585.90)" stroke="none" fill="black" font-family="Arial" font-size="12.00" text-anchor="middle">
		<text><tspan font-family="Arial">2020</tspan></text>
	</g>
</g>
<g fill="none" color="black" stroke="currentColor" stroke-width="1.00" stroke-linecap="butt" stroke-linejoin="miter">
	<path stroke="black" d="M828.04,564.00 L828.04,555.00  " />	<g transform="translate(828.04,585.90)" stroke="none" fill="black" font-family="Arial" font-size="12.00" text-anchor="middle">
		<text><tspan font-family="Arial">2022</tspan></text>
	</g>
</g>
<g fill="none" color="black" stroke="currentColor" stroke-width="1.00" stroke-linecap="butt" stroke-linejoin="miter">
	<path stroke="black" d="M860.10,564.00 L860.10,555.00  " />	<g transform="translate(860.10,585.90)" stroke="none" fill="black" font-family="Arial" font-size="12.00" text-anchor="middle">
		<text><tspan font-family="Arial">2024</tspan></text>
	</g>
</g>
<g fill="none" color="black" stroke="currentColor" stroke-width="1.00" stroke-linecap="butt" stroke-linejoin="miter">
</g>
<g fill="none" color="black" stroke="currentColor" stroke-width="1.00" stroke-linecap="butt" stroke-linejoin="miter">
	<path stroke="black" d="M314.62,18.01 L314.62,564.00 L874.82,564.00 M874.82,18.01 M314.62,18.01  " /></g>
<g fill="none" color="black" stroke="currentColor" stroke-width="1.00" stroke-linecap="butt" stroke-linejoin="miter">
</g>
	<g id="gnuplot_plot_1" fill="none"><title>gnuplot_plot_1</title>
<g fill="none" color="black" stroke="currentColor" stroke-width="1.00" stroke-linecap="butt" stroke-linejoin="miter">
	<g stroke="none" shape-rendering="crispEdges">
		<polygon fill="rgb(148,   0, 211)" points="314.62,31.56 361.41,31.56 361.41,23.81 314.62,23.81 " />
	</g>
	<path stroke="rgb(148,   0, 211)" d="M314.62,31.56 L314.62,23.82 L361.40,23.82 L361.40,31.56 L314.62,31.56 Z  " />	<g stroke="none" shape-rendering="crispEdges">
		<polygon fill="rgb(  0, 158, 115)" points="475.04,50.92 537.87,50.92 537.87,43.17 475.04,43.17 " />
	</g>
	<path stroke="rgb(  0, 158, 115)" d="M475.04,50.92 L475.04,43.18 L537.86,43.18 L537.86,50.92 L475.04,50.92 Z  " />	<g stroke="none" shape-rendering="crispEdges">
		<polygon fill="rgb( 86, 180, 233)" points="619.47,70.29 723.68,70.29 723.68,62.53 619.47,62.53 " />
	</g>
	<path stroke="rgb( 86, 180, 233)" d="M619.47,70.29 L619.47,62.54 L723.67,62.54 L723.67,70.29 L619.47,70.29 Z  " />	<g stroke="none" shape-rendering="crispEdges">
		<polygon fill="rgb(230, 159,   0)" points="635.51,89.65 651.55,89.65 651.55,81.89 635.51,81.89 " />
	</g>
	<path stroke="rgb(230, 159,   0)" d="M635.51,89.65 L635.51,81.90 L651.54,81.90 L651.54,89.65 L635.51,89.65 Z  " />	<g stroke="none" shape-rendering="crispEdges">
		<polygon fill="gray" points="635.51,109.01 794.58,109.01 794.58,101.25 635.51,101.25 " />
	</g>
	<path stroke="gray" d="M635.51,109.01 L635.51,101.26 L794.57,101.26 L794.57,109.01 L635.51,109.01 Z  " />	<g stroke="none" shape-rendering="crispEdges">
		<polygon fill="rgb(240, 228,  66)" points="795.93,109.01 874.83,109.01 874.83,101.25 795.93,101.25 " />
	</g>
	<path stroke="rgb(240, 228,  66)" d="M795.93,109.01 L795.93,101.26 L874.82,101.26 L874.82,109.01 L795.93,109.01 Z  " />	<g stroke="none" shape-rendering="crispEdges">
		<polygon fill="rgb(  0, 114, 178)" points="695.64,128.37 874.83,128.37 874.83,120.62 695.64,120.62 " />
	</g>
	<path stroke="rgb(  0, 114, 178)" d="M695.64,128.37 L695.64,120.63 L874.82,120.63 L874.82,128.37 L695.64,128.37 Z  " />	<g stroke="none" shape-rendering="crispEdges">
		<polygon fill="rgb(229,  30,  16)" points="727.71,147.73 874.83,147.73 874.83,139.98 727.71,139.98 " />
	</g>
	<path stroke="rgb(229,  30,  16)" d="M727.71,147.73 L727.71,139.99 L874.82,139.99 L874.82,147.73 L727.71,147.73 Z  " />	<g stroke="none" shape-rendering="crispEdges">
		<polygon fill="rgb(  0,   0,   0)" points="824.00,167.09 874.83,167.09 874.83,159.34 824.00,159.34 " />
	</g>
	<path stroke="rgb(  0,   0,   0)" d="M824.00,167.09 L824.00,159.35 L874.82,159.35 L874.82,167.09 L824.00,167.09 Z  " />	<g stroke="none" shape-rendering="crispEdges">
		<polygon fill="gray" points="555.30,186.45 619.48,186.45 619.48,178.70 555.30,178.70 " />
	</g>
	<path stroke="gray" d="M555.30,186.45 L555.30,178.71 L619.47,178.71 L619.47,186.45 L555.30,186.45 Z  " />	<g stroke="none" shape-rendering="crispEdges">
		<polygon fill="gray" points="571.33,205.82 619.48,205.82 619.48,198.06 571.33,198.06 " />
	</g>
	<path stroke="gray" d="M571.33,205.82 L571.33,198.07 L619.47,198.07 L619.47,205.82 L571.33,205.82 Z  " />	<g stroke="none" shape-rendering="crispEdges">
		<polygon fill="gray" points="587.36,225.18 650.19,225.18 650.19,217.42 587.36,217.42 " />
	</g>
	<path stroke="gray" d="M587.36,225.18 L587.36,217.43 L650.18,217.43 L650.18,225.18 L587.36,225.18 Z  " />	<g stroke="none" shape-rendering="crispEdges">
		<polygon fill="gray" points="603.40,244.54 694.33,244.54 694.33,236.78 603.40,236.78 " />
	</g>
	<path stroke="gray" d="M603.40,244.54 L603.40,236.79 L694.32,236.79 L694.32,244.54 L603.40,244.54 Z  " />	<g stroke="none" shape-rendering="crispEdges">
		<polygon fill="gray" points="632.83,263.90 646.19,263.90 646.19,256.14 632.83,256.14 " />
	</g>
	<path stroke="gray" d="M632.83,263.90 L632.83,256.15 L646.18,256.15 L646.18,263.90 L632.83,263.90 Z  " />	<g stroke="none" shape-rendering="crispEdges">
		<polygon fill="gray" points="634.14,283.26 666.22,283.26 666.22,275.51 634.14,275.51 " />
	</g>
	<path stroke="gray" d="M634.14,283.26 L634.14,275.52 L666.21,275.52 L666.21,283.26 L634.14,283.26 Z  " />	<g stroke="none" shape-rendering="crispEdges">
		<polygon fill="gray" points="635.51,302.62 670.22,302.62 670.22,294.87 635.51,294.87 " />
	</g>
	<path stroke="gray" d="M635.51,302.62 L635.51,294.88 L670.21,294.88 L670.21,302.62 L635.51,302.62 Z  " />	<g stroke="none" shape-rendering="crispEdges">
		<polygon fill="gray" points="635.51,321.98 709.01,321.98 709.01,314.23 635.51,314.23 " />
	</g>
	<path stroke="gray" d="M635.51,321.98 L635.51,314.24 L709.00,314.24 L709.00,321.98 L635.51,321.98 Z  " />	<g stroke="none" shape-rendering="crispEdges">
		<polygon fill="gray" points="635.51,341.34 719.68,341.34 719.68,333.59 635.51,333.59 " />
	</g>
	<path stroke="gray" d="M635.51,341.34 L635.51,333.60 L719.67,333.60 L719.67,341.34 L635.51,341.34 Z  " />	<g stroke="none" shape-rendering="crispEdges">
		<polygon fill="gray" points="638.10,360.71 798.57,360.71 798.57,352.95 638.10,352.95 " />
	</g>
	<path stroke="gray" d="M638.10,360.71 L638.10,352.96 L798.56,352.96 L798.56,360.71 L638.10,360.71 Z  " />	<g stroke="none" shape-rendering="crispEdges">
		<polygon fill="gray" points="642.14,380.07 650.19,380.07 650.19,372.31 642.14,372.31 " />
	</g>
	<path stroke="gray" d="M642.14,380.07 L642.14,372.32 L650.18,372.32 L650.18,380.07 L642.14,380.07 Z  " />	<g stroke="none" shape-rendering="crispEdges">
		<polygon fill="gray" points="651.54,399.43 683.66,399.43 683.66,391.67 651.54,391.67 " />
	</g>
	<path stroke="gray" d="M651.54,399.43 L651.54,391.68 L683.65,391.68 L683.65,399.43 L651.54,399.43 Z  " />	<g stroke="none" shape-rendering="crispEdges">
		<polygon fill="gray" points="652.90,418.79 666.22,418.79 666.22,411.04 652.90,411.04 " />
	</g>
	<path stroke="gray" d="M652.90,418.79 L652.90,411.05 L666.21,411.05 L666.21,418.79 L652.90,418.79 Z  " />	<g stroke="none" shape-rendering="crispEdges">
		<polygon fill="gray" points="655.49,438.15 703.65,438.15 703.65,430.40 655.49,430.40 " />
	</g>
	<path stroke="gray" d="M655.49,438.15 L655.49,430.41 L703.64,430.41 L703.64,438.15 L655.49,438.15 Z  " />	<g stroke="none" shape-rendering="crispEdges">
		<polygon fill="gray" points="683.65,457.51 688.93,457.51 688.93,449.76 683.65,449.76 " />
	</g>
	<path stroke="gray" d="M683.65,457.51 L683.65,449.77 L688.92,449.77 L688.92,457.51 L683.65,457.51 Z  " />	<g stroke="none" shape-rendering="crispEdges">
		<polygon fill="gray" points="683.65,476.87 819.97,476.87 819.97,469.12 683.65,469.12 " />
	</g>
	<path stroke="gray" d="M683.65,476.87 L683.65,469.13 L819.96,469.13 L819.96,476.87 L683.65,476.87 Z  " />	<g stroke="none" shape-rendering="crispEdges">
		<polygon fill="gray" points="694.32,496.24 874.83,496.24 874.83,488.48 694.32,488.48 " />
	</g>
	<path stroke="gray" d="M694.32,496.24 L694.32,488.49 L874.82,488.49 L874.82,496.24 L694.32,496.24 Z  " />	<g stroke="none" shape-rendering="crispEdges">
		<polygon fill="gray" points="704.95,515.60 706.33,515.60 706.33,507.84 704.95,507.84 " />
	</g>
	<path stroke="gray" d="M704.95,515.60 L704.95,507.85 L706.32,507.85 L706.32,515.60 L704.95,515.60 Z  " />	<g stroke="none" shape-rendering="crispEdges">
		<polygon fill="gray" points="717.08,534.96 770.50,534.96 770.50,527.20 717.08,527.20 " />
	</g>
	<path stroke="gray" d="M717.08,534.96 L717.08,527.21 L770.49,527.21 L770.49,534.96 L717.08,534.96 Z  " />	<g stroke="none" shape-rendering="crispEdges">
		<polygon fill="gray" points="778.53,554.32 782.50,554.32 782.50,546.56 778.53,546.56 " />
	</g>
	<path stroke="gray" d="M778.53,554.32 L778.53,546.57 L782.49,546.57 L782.49,554.32 L778.53,554.32 Z  " /></g>
	</g>
<g fill="none" color="#FFFFFF" stroke="gray" stroke-width="2.00" stroke-linecap="butt" stroke-linejoin="miter">
</g>
<g fill="none" color="black" stroke="currentColor" stroke-width="2.00" stroke-linecap="butt" stroke-linejoin="miter">
</g>
<g fill="none" color="black" stroke="black" stroke-width="1.00" stroke-linecap="butt" stroke-linejoin="miter">
</g>
<g fill="none" color="black" stroke="currentColor" stroke-width="1.00" stroke-linecap="butt" stroke-linejoin="miter">
	<path stroke="black" d="M314.62,18.01 L314.62,564.00 L874.82,564.00 M874.82,18.01 M314.62,18.01  " /></g>
<g fill="none" color="black" stroke="currentColor" stroke-width="1.00" stroke-linecap="butt" stroke-linejoin="miter">
</g>
</g>
</svg>